%TF.GenerationSoftware,KiCad,Pcbnew,7.0.6-0*%
%TF.CreationDate,2024-01-30T23:56:51-05:00*%
%TF.ProjectId,Peripherals Board (new),50657269-7068-4657-9261-6c7320426f61,rev?*%
%TF.SameCoordinates,Original*%
%TF.FileFunction,Soldermask,Bot*%
%TF.FilePolarity,Negative*%
%FSLAX46Y46*%
G04 Gerber Fmt 4.6, Leading zero omitted, Abs format (unit mm)*
G04 Created by KiCad (PCBNEW 7.0.6-0) date 2024-01-30 23:56:51*
%MOMM*%
%LPD*%
G01*
G04 APERTURE LIST*
%ADD10C,1.600000*%
%ADD11R,1.700000X1.700000*%
%ADD12O,1.700000X1.700000*%
%ADD13C,4.400000*%
%ADD14C,3.000000*%
%ADD15C,1.950000*%
G04 APERTURE END LIST*
D10*
%TO.C,U1*%
X198755000Y-72390000D03*
X198755000Y-74930000D03*
X201295000Y-72390000D03*
X201295000Y-74930000D03*
X203835000Y-72390000D03*
X203835000Y-74930000D03*
X206375000Y-72390000D03*
X206375000Y-74930000D03*
X208915000Y-72390000D03*
X208915000Y-74930000D03*
X208915000Y-49530000D03*
X211455000Y-46990000D03*
X211455000Y-49530000D03*
X211455000Y-52070000D03*
X211455000Y-54610000D03*
X211455000Y-57150000D03*
X211455000Y-59690000D03*
X211455000Y-62230000D03*
X211455000Y-64770000D03*
X211455000Y-67310000D03*
X211455000Y-69850000D03*
X211455000Y-72390000D03*
X211455000Y-74930000D03*
X211455000Y-77470000D03*
X211455000Y-80010000D03*
X208915000Y-80010000D03*
X206375000Y-80010000D03*
X203835000Y-80010000D03*
X201295000Y-80010000D03*
X198755000Y-80010000D03*
X196215000Y-80010000D03*
X196215000Y-77470000D03*
X196215000Y-74930000D03*
X196215000Y-72390000D03*
X196215000Y-69850000D03*
X196215000Y-67310000D03*
X196215000Y-64770000D03*
X196215000Y-62230000D03*
X196215000Y-59690000D03*
X196215000Y-57150000D03*
X196215000Y-54610000D03*
X196215000Y-52070000D03*
X196215000Y-49530000D03*
X196215000Y-46990000D03*
%TD*%
D11*
%TO.C,J4*%
X218440000Y-53340000D03*
D12*
X215900000Y-53340000D03*
X218440000Y-55880000D03*
X215900000Y-55880000D03*
X218440000Y-58420000D03*
X215900000Y-58420000D03*
X218440000Y-60960000D03*
X215900000Y-60960000D03*
X218440000Y-63500000D03*
X215900000Y-63500000D03*
X218440000Y-66040000D03*
X215900000Y-66040000D03*
X218440000Y-68580000D03*
X215900000Y-68580000D03*
X218440000Y-71120000D03*
X215900000Y-71120000D03*
X218440000Y-73660000D03*
X215900000Y-73660000D03*
X218440000Y-76200000D03*
X215900000Y-76200000D03*
X218440000Y-78740000D03*
X215900000Y-78740000D03*
%TD*%
D13*
%TO.C,H1*%
X217805000Y-48895000D03*
%TD*%
%TO.C,H4*%
X173355000Y-83185000D03*
%TD*%
D14*
%TO.C,J3*%
X182920000Y-58340000D03*
D15*
X179920000Y-48340000D03*
D14*
X187920000Y-58340000D03*
D15*
X190920000Y-48340000D03*
%TD*%
D13*
%TO.C,H2*%
X217805000Y-83185000D03*
%TD*%
%TO.C,H3*%
X173355000Y-48895000D03*
%TD*%
M02*
