M48
; DRILL file {KiCad 7.0.6-0} date 2024 January 30, Tuesday 23:57:04
; FORMAT={-:-/ absolute / inch / decimal}
; #@! TF.CreationDate,2024-01-30T23:57:04-05:00
; #@! TF.GenerationSoftware,Kicad,Pcbnew,7.0.6-0
; #@! TF.FileFunction,Plated,1,2,PTH
FMAT,2
INCH
; #@! TA.AperFunction,Plated,PTH,ViaDrill
T1C0.0157
; #@! TA.AperFunction,Plated,PTH,ComponentDrill
T2C0.0394
; #@! TA.AperFunction,Plated,PTH,ComponentDrill
T3C0.0433
; #@! TA.AperFunction,Plated,PTH,ComponentDrill
T4C0.0492
; #@! TA.AperFunction,Plated,PTH,ComponentDrill
T5C0.0768
; #@! TA.AperFunction,Plated,PTH,ComponentDrill
T6C0.0866
%
G90
G05
T1
X6.925Y-2.9
X6.975Y-2.45
X7.0Y-3.225
X7.15Y-3.225
X7.175Y-3.025
X7.25Y-2.5
X7.3083Y-2.9675
X7.4463Y-3.0287
X7.4955Y-3.0295
X7.6Y-2.5
X7.625Y-2.575
X7.875Y-2.45
X7.875Y-2.55
X7.875Y-2.65
X7.95Y-2.675
X7.975Y-2.35
X8.05Y-2.575
X8.075Y-2.25
X8.1327Y-2.4827
X8.225Y-2.075
X8.25Y-2.375
X8.375Y-2.2
X8.4152Y-2.1848
T2
X8.5Y-2.1
X8.5Y-2.2
X8.5Y-2.3
X8.5Y-2.4
X8.5Y-2.5
X8.5Y-2.6
X8.5Y-2.7
X8.5Y-2.8
X8.5Y-2.9
X8.5Y-3.0
X8.5Y-3.1
X8.6Y-2.1
X8.6Y-2.2
X8.6Y-2.3
X8.6Y-2.4
X8.6Y-2.5
X8.6Y-2.6
X8.6Y-2.7
X8.6Y-2.8
X8.6Y-2.9
X8.6Y-3.0
X8.6Y-3.1
T3
X7.725Y-1.85
X7.725Y-1.95
X7.725Y-2.05
X7.725Y-2.15
X7.725Y-2.25
X7.725Y-2.35
X7.725Y-2.45
X7.725Y-2.55
X7.725Y-2.65
X7.725Y-2.75
X7.725Y-2.85
X7.725Y-2.95
X7.725Y-3.05
X7.725Y-3.15
X7.825Y-2.85
X7.825Y-2.95
X7.825Y-3.15
X7.925Y-2.85
X7.925Y-2.95
X7.925Y-3.15
X8.025Y-2.85
X8.025Y-2.95
X8.025Y-3.15
X8.125Y-2.85
X8.125Y-2.95
X8.125Y-3.15
X8.225Y-1.95
X8.225Y-2.85
X8.225Y-2.95
X8.225Y-3.15
X8.325Y-1.85
X8.325Y-1.95
X8.325Y-2.05
X8.325Y-2.15
X8.325Y-2.25
X8.325Y-2.35
X8.325Y-2.45
X8.325Y-2.55
X8.325Y-2.65
X8.325Y-2.75
X8.325Y-2.85
X8.325Y-2.95
X8.325Y-3.05
X8.325Y-3.15
T4
X7.0835Y-1.9031
X7.5165Y-1.9031
T5
X7.2016Y-2.2969
X7.3984Y-2.2969
T6
X6.825Y-1.925
X6.825Y-3.275
X8.575Y-1.925
X8.575Y-3.275
T0
M30
