%TF.GenerationSoftware,KiCad,Pcbnew,7.0.6-0*%
%TF.CreationDate,2024-01-30T23:57:17-05:00*%
%TF.ProjectId,Peripherals Board (new),50657269-7068-4657-9261-6c7320426f61,rev?*%
%TF.SameCoordinates,Original*%
%TF.FileFunction,Drillmap*%
%TF.FilePolarity,Positive*%
%FSLAX45Y45*%
G04 Gerber Fmt 4.5, Leading zero omitted, Abs format (unit mm)*
G04 Created by KiCad (PCBNEW 7.0.6-0) date 2024-01-30 23:57:17*
%MOMM*%
%LPD*%
G01*
G04 APERTURE LIST*
%ADD10C,0.200000*%
%ADD11C,0.040000*%
%ADD12C,0.100000*%
%ADD13C,0.110000*%
%ADD14C,0.125000*%
%ADD15C,0.195000*%
%ADD16C,0.220000*%
G04 APERTURE END LIST*
D10*
X17018000Y-8391000D02*
X17018000Y-4817000D01*
X22098000Y-4817000D02*
X22098000Y-8391000D01*
X17263000Y-4572000D02*
X21853000Y-4572000D01*
X17263000Y-4572000D02*
G75*
G03*
X17018000Y-4817000I0J-245000D01*
G01*
X22098000Y-4817000D02*
G75*
G03*
X21853000Y-4572000I-245000J0D01*
G01*
X17018000Y-8391000D02*
G75*
G03*
X17263000Y-8636000I245000J0D01*
G01*
X21853000Y-8636000D02*
G75*
G03*
X22098000Y-8391000I0J245000D01*
G01*
X21853000Y-8636000D02*
X17263000Y-8636000D01*
D11*
X17569500Y-7346000D02*
X17609500Y-7386000D01*
X17609500Y-7346000D02*
X17569500Y-7386000D01*
X17696500Y-6203000D02*
X17736500Y-6243000D01*
X17736500Y-6203000D02*
X17696500Y-6243000D01*
X17760000Y-8171500D02*
X17800000Y-8211500D01*
X17800000Y-8171500D02*
X17760000Y-8211500D01*
X18141000Y-8171500D02*
X18181000Y-8211500D01*
X18181000Y-8171500D02*
X18141000Y-8211500D01*
X18204500Y-7663500D02*
X18244500Y-7703500D01*
X18244500Y-7663500D02*
X18204500Y-7703500D01*
X18395000Y-6330000D02*
X18435000Y-6370000D01*
X18435000Y-6330000D02*
X18395000Y-6370000D01*
X18543067Y-7517384D02*
X18583067Y-7557384D01*
X18583067Y-7517384D02*
X18543067Y-7557384D01*
X18893500Y-7673000D02*
X18933500Y-7713000D01*
X18933500Y-7673000D02*
X18893500Y-7713000D01*
X19018500Y-7675000D02*
X19058500Y-7715000D01*
X19058500Y-7675000D02*
X19018500Y-7715000D01*
X19284000Y-6330000D02*
X19324000Y-6370000D01*
X19324000Y-6330000D02*
X19284000Y-6370000D01*
X19347500Y-6520500D02*
X19387500Y-6560500D01*
X19387500Y-6520500D02*
X19347500Y-6560500D01*
X19982500Y-6203000D02*
X20022500Y-6243000D01*
X20022500Y-6203000D02*
X19982500Y-6243000D01*
X19982500Y-6457000D02*
X20022500Y-6497000D01*
X20022500Y-6457000D02*
X19982500Y-6497000D01*
X19982500Y-6711000D02*
X20022500Y-6751000D01*
X20022500Y-6711000D02*
X19982500Y-6751000D01*
X20173000Y-6774500D02*
X20213000Y-6814500D01*
X20213000Y-6774500D02*
X20173000Y-6814500D01*
X20236500Y-5949000D02*
X20276500Y-5989000D01*
X20276500Y-5949000D02*
X20236500Y-5989000D01*
X20427000Y-6520500D02*
X20467000Y-6560500D01*
X20467000Y-6520500D02*
X20427000Y-6560500D01*
X20490500Y-5695000D02*
X20530500Y-5735000D01*
X20530500Y-5695000D02*
X20490500Y-5735000D01*
X20636980Y-6285980D02*
X20676980Y-6325980D01*
X20676980Y-6285980D02*
X20636980Y-6325980D01*
X20871500Y-5250500D02*
X20911500Y-5290500D01*
X20911500Y-5250500D02*
X20871500Y-5290500D01*
X20935000Y-6012500D02*
X20975000Y-6052500D01*
X20975000Y-6012500D02*
X20935000Y-6052500D01*
X21252500Y-5568000D02*
X21292500Y-5608000D01*
X21292500Y-5568000D02*
X21252500Y-5608000D01*
X21354717Y-5529283D02*
X21394717Y-5569283D01*
X21394717Y-5529283D02*
X21354717Y-5569283D01*
D12*
X21640000Y-5334000D02*
G75*
G03*
X21640000Y-5334000I-50000J0D01*
G01*
X21640000Y-5588000D02*
G75*
G03*
X21640000Y-5588000I-50000J0D01*
G01*
X21640000Y-5842000D02*
G75*
G03*
X21640000Y-5842000I-50000J0D01*
G01*
X21640000Y-6096000D02*
G75*
G03*
X21640000Y-6096000I-50000J0D01*
G01*
X21640000Y-6350000D02*
G75*
G03*
X21640000Y-6350000I-50000J0D01*
G01*
X21640000Y-6604000D02*
G75*
G03*
X21640000Y-6604000I-50000J0D01*
G01*
X21640000Y-6858000D02*
G75*
G03*
X21640000Y-6858000I-50000J0D01*
G01*
X21640000Y-7112000D02*
G75*
G03*
X21640000Y-7112000I-50000J0D01*
G01*
X21640000Y-7366000D02*
G75*
G03*
X21640000Y-7366000I-50000J0D01*
G01*
X21640000Y-7620000D02*
G75*
G03*
X21640000Y-7620000I-50000J0D01*
G01*
X21640000Y-7874000D02*
G75*
G03*
X21640000Y-7874000I-50000J0D01*
G01*
X21894000Y-5334000D02*
G75*
G03*
X21894000Y-5334000I-50000J0D01*
G01*
X21894000Y-5588000D02*
G75*
G03*
X21894000Y-5588000I-50000J0D01*
G01*
X21894000Y-5842000D02*
G75*
G03*
X21894000Y-5842000I-50000J0D01*
G01*
X21894000Y-6096000D02*
G75*
G03*
X21894000Y-6096000I-50000J0D01*
G01*
X21894000Y-6350000D02*
G75*
G03*
X21894000Y-6350000I-50000J0D01*
G01*
X21894000Y-6604000D02*
G75*
G03*
X21894000Y-6604000I-50000J0D01*
G01*
X21894000Y-6858000D02*
G75*
G03*
X21894000Y-6858000I-50000J0D01*
G01*
X21894000Y-7112000D02*
G75*
G03*
X21894000Y-7112000I-50000J0D01*
G01*
X21894000Y-7366000D02*
G75*
G03*
X21894000Y-7366000I-50000J0D01*
G01*
X21894000Y-7620000D02*
G75*
G03*
X21894000Y-7620000I-50000J0D01*
G01*
X21894000Y-7874000D02*
G75*
G03*
X21894000Y-7874000I-50000J0D01*
G01*
D13*
X19621500Y-4644000D02*
X19621500Y-4754000D01*
X19566500Y-4699000D02*
X19676500Y-4699000D01*
X19621500Y-4898000D02*
X19621500Y-5008000D01*
X19566500Y-4953000D02*
X19676500Y-4953000D01*
X19621500Y-5152000D02*
X19621500Y-5262000D01*
X19566500Y-5207000D02*
X19676500Y-5207000D01*
X19621500Y-5406000D02*
X19621500Y-5516000D01*
X19566500Y-5461000D02*
X19676500Y-5461000D01*
X19621500Y-5660000D02*
X19621500Y-5770000D01*
X19566500Y-5715000D02*
X19676500Y-5715000D01*
X19621500Y-5914000D02*
X19621500Y-6024000D01*
X19566500Y-5969000D02*
X19676500Y-5969000D01*
X19621500Y-6168000D02*
X19621500Y-6278000D01*
X19566500Y-6223000D02*
X19676500Y-6223000D01*
X19621500Y-6422000D02*
X19621500Y-6532000D01*
X19566500Y-6477000D02*
X19676500Y-6477000D01*
X19621500Y-6676000D02*
X19621500Y-6786000D01*
X19566500Y-6731000D02*
X19676500Y-6731000D01*
X19621500Y-6930000D02*
X19621500Y-7040000D01*
X19566500Y-6985000D02*
X19676500Y-6985000D01*
X19621500Y-7184000D02*
X19621500Y-7294000D01*
X19566500Y-7239000D02*
X19676500Y-7239000D01*
X19621500Y-7438000D02*
X19621500Y-7548000D01*
X19566500Y-7493000D02*
X19676500Y-7493000D01*
X19621500Y-7692000D02*
X19621500Y-7802000D01*
X19566500Y-7747000D02*
X19676500Y-7747000D01*
X19621500Y-7946000D02*
X19621500Y-8056000D01*
X19566500Y-8001000D02*
X19676500Y-8001000D01*
X19875500Y-7184000D02*
X19875500Y-7294000D01*
X19820500Y-7239000D02*
X19930500Y-7239000D01*
X19875500Y-7438000D02*
X19875500Y-7548000D01*
X19820500Y-7493000D02*
X19930500Y-7493000D01*
X19875500Y-7946000D02*
X19875500Y-8056000D01*
X19820500Y-8001000D02*
X19930500Y-8001000D01*
X20129500Y-7184000D02*
X20129500Y-7294000D01*
X20074500Y-7239000D02*
X20184500Y-7239000D01*
X20129500Y-7438000D02*
X20129500Y-7548000D01*
X20074500Y-7493000D02*
X20184500Y-7493000D01*
X20129500Y-7946000D02*
X20129500Y-8056000D01*
X20074500Y-8001000D02*
X20184500Y-8001000D01*
X20383500Y-7184000D02*
X20383500Y-7294000D01*
X20328500Y-7239000D02*
X20438500Y-7239000D01*
X20383500Y-7438000D02*
X20383500Y-7548000D01*
X20328500Y-7493000D02*
X20438500Y-7493000D01*
X20383500Y-7946000D02*
X20383500Y-8056000D01*
X20328500Y-8001000D02*
X20438500Y-8001000D01*
X20637500Y-7184000D02*
X20637500Y-7294000D01*
X20582500Y-7239000D02*
X20692500Y-7239000D01*
X20637500Y-7438000D02*
X20637500Y-7548000D01*
X20582500Y-7493000D02*
X20692500Y-7493000D01*
X20637500Y-7946000D02*
X20637500Y-8056000D01*
X20582500Y-8001000D02*
X20692500Y-8001000D01*
X20891500Y-4898000D02*
X20891500Y-5008000D01*
X20836500Y-4953000D02*
X20946500Y-4953000D01*
X20891500Y-7184000D02*
X20891500Y-7294000D01*
X20836500Y-7239000D02*
X20946500Y-7239000D01*
X20891500Y-7438000D02*
X20891500Y-7548000D01*
X20836500Y-7493000D02*
X20946500Y-7493000D01*
X20891500Y-7946000D02*
X20891500Y-8056000D01*
X20836500Y-8001000D02*
X20946500Y-8001000D01*
X21145500Y-4644000D02*
X21145500Y-4754000D01*
X21090500Y-4699000D02*
X21200500Y-4699000D01*
X21145500Y-4898000D02*
X21145500Y-5008000D01*
X21090500Y-4953000D02*
X21200500Y-4953000D01*
X21145500Y-5152000D02*
X21145500Y-5262000D01*
X21090500Y-5207000D02*
X21200500Y-5207000D01*
X21145500Y-5406000D02*
X21145500Y-5516000D01*
X21090500Y-5461000D02*
X21200500Y-5461000D01*
X21145500Y-5660000D02*
X21145500Y-5770000D01*
X21090500Y-5715000D02*
X21200500Y-5715000D01*
X21145500Y-5914000D02*
X21145500Y-6024000D01*
X21090500Y-5969000D02*
X21200500Y-5969000D01*
X21145500Y-6168000D02*
X21145500Y-6278000D01*
X21090500Y-6223000D02*
X21200500Y-6223000D01*
X21145500Y-6422000D02*
X21145500Y-6532000D01*
X21090500Y-6477000D02*
X21200500Y-6477000D01*
X21145500Y-6676000D02*
X21145500Y-6786000D01*
X21090500Y-6731000D02*
X21200500Y-6731000D01*
X21145500Y-6930000D02*
X21145500Y-7040000D01*
X21090500Y-6985000D02*
X21200500Y-6985000D01*
X21145500Y-7184000D02*
X21145500Y-7294000D01*
X21090500Y-7239000D02*
X21200500Y-7239000D01*
X21145500Y-7438000D02*
X21145500Y-7548000D01*
X21090500Y-7493000D02*
X21200500Y-7493000D01*
X21145500Y-7692000D02*
X21145500Y-7802000D01*
X21090500Y-7747000D02*
X21200500Y-7747000D01*
X21145500Y-7946000D02*
X21145500Y-8056000D01*
X21090500Y-8001000D02*
X21200500Y-8001000D01*
D14*
X18036195Y-4878195D02*
X18036195Y-4789805D01*
X17947805Y-4789805D01*
X17947805Y-4878195D01*
X18036195Y-4878195D01*
X19136195Y-4878195D02*
X19136195Y-4789805D01*
X19047805Y-4789805D01*
X19047805Y-4878195D01*
X19136195Y-4878195D01*
D15*
X18292000Y-5931500D02*
X18389500Y-5834000D01*
X18292000Y-5736500D01*
X18194500Y-5834000D01*
X18292000Y-5931500D01*
X18792000Y-5931500D02*
X18889500Y-5834000D01*
X18792000Y-5736500D01*
X18694500Y-5834000D01*
X18792000Y-5931500D01*
D16*
X17225500Y-4779500D02*
X17445500Y-4999500D01*
X17445500Y-4779500D02*
X17225500Y-4999500D01*
X17445500Y-4889500D02*
G75*
G03*
X17445500Y-4889500I-110000J0D01*
G01*
X17225500Y-8208500D02*
X17445500Y-8428500D01*
X17445500Y-8208500D02*
X17225500Y-8428500D01*
X17445500Y-8318500D02*
G75*
G03*
X17445500Y-8318500I-110000J0D01*
G01*
X21670500Y-4779500D02*
X21890500Y-4999500D01*
X21890500Y-4779500D02*
X21670500Y-4999500D01*
X21890500Y-4889500D02*
G75*
G03*
X21890500Y-4889500I-110000J0D01*
G01*
X21670500Y-8208500D02*
X21890500Y-8428500D01*
X21890500Y-8208500D02*
X21670500Y-8428500D01*
X21890500Y-8318500D02*
G75*
G03*
X21890500Y-8318500I-110000J0D01*
G01*
D10*
X17268777Y-8957484D02*
X17268777Y-8757484D01*
X17268777Y-8757484D02*
X17316396Y-8757484D01*
X17316396Y-8757484D02*
X17344967Y-8767008D01*
X17344967Y-8767008D02*
X17364015Y-8786055D01*
X17364015Y-8786055D02*
X17373539Y-8805103D01*
X17373539Y-8805103D02*
X17383063Y-8843198D01*
X17383063Y-8843198D02*
X17383063Y-8871770D01*
X17383063Y-8871770D02*
X17373539Y-8909865D01*
X17373539Y-8909865D02*
X17364015Y-8928912D01*
X17364015Y-8928912D02*
X17344967Y-8947960D01*
X17344967Y-8947960D02*
X17316396Y-8957484D01*
X17316396Y-8957484D02*
X17268777Y-8957484D01*
X17468777Y-8957484D02*
X17468777Y-8824150D01*
X17468777Y-8862246D02*
X17478301Y-8843198D01*
X17478301Y-8843198D02*
X17487824Y-8833674D01*
X17487824Y-8833674D02*
X17506872Y-8824150D01*
X17506872Y-8824150D02*
X17525920Y-8824150D01*
X17592586Y-8957484D02*
X17592586Y-8824150D01*
X17592586Y-8757484D02*
X17583063Y-8767008D01*
X17583063Y-8767008D02*
X17592586Y-8776531D01*
X17592586Y-8776531D02*
X17602110Y-8767008D01*
X17602110Y-8767008D02*
X17592586Y-8757484D01*
X17592586Y-8757484D02*
X17592586Y-8776531D01*
X17716396Y-8957484D02*
X17697348Y-8947960D01*
X17697348Y-8947960D02*
X17687824Y-8928912D01*
X17687824Y-8928912D02*
X17687824Y-8757484D01*
X17821158Y-8957484D02*
X17802110Y-8947960D01*
X17802110Y-8947960D02*
X17792586Y-8928912D01*
X17792586Y-8928912D02*
X17792586Y-8757484D01*
X18049729Y-8957484D02*
X18049729Y-8757484D01*
X18049729Y-8757484D02*
X18116396Y-8900341D01*
X18116396Y-8900341D02*
X18183063Y-8757484D01*
X18183063Y-8757484D02*
X18183063Y-8957484D01*
X18364015Y-8957484D02*
X18364015Y-8852722D01*
X18364015Y-8852722D02*
X18354491Y-8833674D01*
X18354491Y-8833674D02*
X18335444Y-8824150D01*
X18335444Y-8824150D02*
X18297348Y-8824150D01*
X18297348Y-8824150D02*
X18278301Y-8833674D01*
X18364015Y-8947960D02*
X18344967Y-8957484D01*
X18344967Y-8957484D02*
X18297348Y-8957484D01*
X18297348Y-8957484D02*
X18278301Y-8947960D01*
X18278301Y-8947960D02*
X18268777Y-8928912D01*
X18268777Y-8928912D02*
X18268777Y-8909865D01*
X18268777Y-8909865D02*
X18278301Y-8890817D01*
X18278301Y-8890817D02*
X18297348Y-8881293D01*
X18297348Y-8881293D02*
X18344967Y-8881293D01*
X18344967Y-8881293D02*
X18364015Y-8871770D01*
X18459253Y-8824150D02*
X18459253Y-9024150D01*
X18459253Y-8833674D02*
X18478301Y-8824150D01*
X18478301Y-8824150D02*
X18516396Y-8824150D01*
X18516396Y-8824150D02*
X18535444Y-8833674D01*
X18535444Y-8833674D02*
X18544967Y-8843198D01*
X18544967Y-8843198D02*
X18554491Y-8862246D01*
X18554491Y-8862246D02*
X18554491Y-8919389D01*
X18554491Y-8919389D02*
X18544967Y-8938436D01*
X18544967Y-8938436D02*
X18535444Y-8947960D01*
X18535444Y-8947960D02*
X18516396Y-8957484D01*
X18516396Y-8957484D02*
X18478301Y-8957484D01*
X18478301Y-8957484D02*
X18459253Y-8947960D01*
X18640205Y-8938436D02*
X18649729Y-8947960D01*
X18649729Y-8947960D02*
X18640205Y-8957484D01*
X18640205Y-8957484D02*
X18630682Y-8947960D01*
X18630682Y-8947960D02*
X18640205Y-8938436D01*
X18640205Y-8938436D02*
X18640205Y-8957484D01*
X18640205Y-8833674D02*
X18649729Y-8843198D01*
X18649729Y-8843198D02*
X18640205Y-8852722D01*
X18640205Y-8852722D02*
X18630682Y-8843198D01*
X18630682Y-8843198D02*
X18640205Y-8833674D01*
X18640205Y-8833674D02*
X18640205Y-8852722D01*
D11*
X16968000Y-9266000D02*
X17008000Y-9306000D01*
X17008000Y-9266000D02*
X16968000Y-9306000D01*
D10*
X17306872Y-9177484D02*
X17325920Y-9177484D01*
X17325920Y-9177484D02*
X17344967Y-9187008D01*
X17344967Y-9187008D02*
X17354491Y-9196531D01*
X17354491Y-9196531D02*
X17364015Y-9215579D01*
X17364015Y-9215579D02*
X17373539Y-9253674D01*
X17373539Y-9253674D02*
X17373539Y-9301293D01*
X17373539Y-9301293D02*
X17364015Y-9339389D01*
X17364015Y-9339389D02*
X17354491Y-9358436D01*
X17354491Y-9358436D02*
X17344967Y-9367960D01*
X17344967Y-9367960D02*
X17325920Y-9377484D01*
X17325920Y-9377484D02*
X17306872Y-9377484D01*
X17306872Y-9377484D02*
X17287824Y-9367960D01*
X17287824Y-9367960D02*
X17278301Y-9358436D01*
X17278301Y-9358436D02*
X17268777Y-9339389D01*
X17268777Y-9339389D02*
X17259253Y-9301293D01*
X17259253Y-9301293D02*
X17259253Y-9253674D01*
X17259253Y-9253674D02*
X17268777Y-9215579D01*
X17268777Y-9215579D02*
X17278301Y-9196531D01*
X17278301Y-9196531D02*
X17287824Y-9187008D01*
X17287824Y-9187008D02*
X17306872Y-9177484D01*
X17459253Y-9358436D02*
X17468777Y-9367960D01*
X17468777Y-9367960D02*
X17459253Y-9377484D01*
X17459253Y-9377484D02*
X17449729Y-9367960D01*
X17449729Y-9367960D02*
X17459253Y-9358436D01*
X17459253Y-9358436D02*
X17459253Y-9377484D01*
X17640205Y-9244150D02*
X17640205Y-9377484D01*
X17592586Y-9167960D02*
X17544967Y-9310817D01*
X17544967Y-9310817D02*
X17668777Y-9310817D01*
X17783063Y-9177484D02*
X17802110Y-9177484D01*
X17802110Y-9177484D02*
X17821158Y-9187008D01*
X17821158Y-9187008D02*
X17830682Y-9196531D01*
X17830682Y-9196531D02*
X17840205Y-9215579D01*
X17840205Y-9215579D02*
X17849729Y-9253674D01*
X17849729Y-9253674D02*
X17849729Y-9301293D01*
X17849729Y-9301293D02*
X17840205Y-9339389D01*
X17840205Y-9339389D02*
X17830682Y-9358436D01*
X17830682Y-9358436D02*
X17821158Y-9367960D01*
X17821158Y-9367960D02*
X17802110Y-9377484D01*
X17802110Y-9377484D02*
X17783063Y-9377484D01*
X17783063Y-9377484D02*
X17764015Y-9367960D01*
X17764015Y-9367960D02*
X17754491Y-9358436D01*
X17754491Y-9358436D02*
X17744967Y-9339389D01*
X17744967Y-9339389D02*
X17735444Y-9301293D01*
X17735444Y-9301293D02*
X17735444Y-9253674D01*
X17735444Y-9253674D02*
X17744967Y-9215579D01*
X17744967Y-9215579D02*
X17754491Y-9196531D01*
X17754491Y-9196531D02*
X17764015Y-9187008D01*
X17764015Y-9187008D02*
X17783063Y-9177484D01*
X17973539Y-9177484D02*
X17992586Y-9177484D01*
X17992586Y-9177484D02*
X18011634Y-9187008D01*
X18011634Y-9187008D02*
X18021158Y-9196531D01*
X18021158Y-9196531D02*
X18030682Y-9215579D01*
X18030682Y-9215579D02*
X18040205Y-9253674D01*
X18040205Y-9253674D02*
X18040205Y-9301293D01*
X18040205Y-9301293D02*
X18030682Y-9339389D01*
X18030682Y-9339389D02*
X18021158Y-9358436D01*
X18021158Y-9358436D02*
X18011634Y-9367960D01*
X18011634Y-9367960D02*
X17992586Y-9377484D01*
X17992586Y-9377484D02*
X17973539Y-9377484D01*
X17973539Y-9377484D02*
X17954491Y-9367960D01*
X17954491Y-9367960D02*
X17944967Y-9358436D01*
X17944967Y-9358436D02*
X17935444Y-9339389D01*
X17935444Y-9339389D02*
X17925920Y-9301293D01*
X17925920Y-9301293D02*
X17925920Y-9253674D01*
X17925920Y-9253674D02*
X17935444Y-9215579D01*
X17935444Y-9215579D02*
X17944967Y-9196531D01*
X17944967Y-9196531D02*
X17954491Y-9187008D01*
X17954491Y-9187008D02*
X17973539Y-9177484D01*
X18125920Y-9377484D02*
X18125920Y-9244150D01*
X18125920Y-9263198D02*
X18135444Y-9253674D01*
X18135444Y-9253674D02*
X18154491Y-9244150D01*
X18154491Y-9244150D02*
X18183063Y-9244150D01*
X18183063Y-9244150D02*
X18202110Y-9253674D01*
X18202110Y-9253674D02*
X18211634Y-9272722D01*
X18211634Y-9272722D02*
X18211634Y-9377484D01*
X18211634Y-9272722D02*
X18221158Y-9253674D01*
X18221158Y-9253674D02*
X18240205Y-9244150D01*
X18240205Y-9244150D02*
X18268777Y-9244150D01*
X18268777Y-9244150D02*
X18287825Y-9253674D01*
X18287825Y-9253674D02*
X18297348Y-9272722D01*
X18297348Y-9272722D02*
X18297348Y-9377484D01*
X18392586Y-9377484D02*
X18392586Y-9244150D01*
X18392586Y-9263198D02*
X18402110Y-9253674D01*
X18402110Y-9253674D02*
X18421158Y-9244150D01*
X18421158Y-9244150D02*
X18449729Y-9244150D01*
X18449729Y-9244150D02*
X18468777Y-9253674D01*
X18468777Y-9253674D02*
X18478301Y-9272722D01*
X18478301Y-9272722D02*
X18478301Y-9377484D01*
X18478301Y-9272722D02*
X18487825Y-9253674D01*
X18487825Y-9253674D02*
X18506872Y-9244150D01*
X18506872Y-9244150D02*
X18535444Y-9244150D01*
X18535444Y-9244150D02*
X18554491Y-9253674D01*
X18554491Y-9253674D02*
X18564015Y-9272722D01*
X18564015Y-9272722D02*
X18564015Y-9377484D01*
X18954491Y-9167960D02*
X18783063Y-9425103D01*
X19211634Y-9177484D02*
X19230682Y-9177484D01*
X19230682Y-9177484D02*
X19249729Y-9187008D01*
X19249729Y-9187008D02*
X19259253Y-9196531D01*
X19259253Y-9196531D02*
X19268777Y-9215579D01*
X19268777Y-9215579D02*
X19278301Y-9253674D01*
X19278301Y-9253674D02*
X19278301Y-9301293D01*
X19278301Y-9301293D02*
X19268777Y-9339389D01*
X19268777Y-9339389D02*
X19259253Y-9358436D01*
X19259253Y-9358436D02*
X19249729Y-9367960D01*
X19249729Y-9367960D02*
X19230682Y-9377484D01*
X19230682Y-9377484D02*
X19211634Y-9377484D01*
X19211634Y-9377484D02*
X19192587Y-9367960D01*
X19192587Y-9367960D02*
X19183063Y-9358436D01*
X19183063Y-9358436D02*
X19173539Y-9339389D01*
X19173539Y-9339389D02*
X19164015Y-9301293D01*
X19164015Y-9301293D02*
X19164015Y-9253674D01*
X19164015Y-9253674D02*
X19173539Y-9215579D01*
X19173539Y-9215579D02*
X19183063Y-9196531D01*
X19183063Y-9196531D02*
X19192587Y-9187008D01*
X19192587Y-9187008D02*
X19211634Y-9177484D01*
X19364015Y-9358436D02*
X19373539Y-9367960D01*
X19373539Y-9367960D02*
X19364015Y-9377484D01*
X19364015Y-9377484D02*
X19354491Y-9367960D01*
X19354491Y-9367960D02*
X19364015Y-9358436D01*
X19364015Y-9358436D02*
X19364015Y-9377484D01*
X19497348Y-9177484D02*
X19516396Y-9177484D01*
X19516396Y-9177484D02*
X19535444Y-9187008D01*
X19535444Y-9187008D02*
X19544968Y-9196531D01*
X19544968Y-9196531D02*
X19554491Y-9215579D01*
X19554491Y-9215579D02*
X19564015Y-9253674D01*
X19564015Y-9253674D02*
X19564015Y-9301293D01*
X19564015Y-9301293D02*
X19554491Y-9339389D01*
X19554491Y-9339389D02*
X19544968Y-9358436D01*
X19544968Y-9358436D02*
X19535444Y-9367960D01*
X19535444Y-9367960D02*
X19516396Y-9377484D01*
X19516396Y-9377484D02*
X19497348Y-9377484D01*
X19497348Y-9377484D02*
X19478301Y-9367960D01*
X19478301Y-9367960D02*
X19468777Y-9358436D01*
X19468777Y-9358436D02*
X19459253Y-9339389D01*
X19459253Y-9339389D02*
X19449729Y-9301293D01*
X19449729Y-9301293D02*
X19449729Y-9253674D01*
X19449729Y-9253674D02*
X19459253Y-9215579D01*
X19459253Y-9215579D02*
X19468777Y-9196531D01*
X19468777Y-9196531D02*
X19478301Y-9187008D01*
X19478301Y-9187008D02*
X19497348Y-9177484D01*
X19754491Y-9377484D02*
X19640206Y-9377484D01*
X19697348Y-9377484D02*
X19697348Y-9177484D01*
X19697348Y-9177484D02*
X19678301Y-9206055D01*
X19678301Y-9206055D02*
X19659253Y-9225103D01*
X19659253Y-9225103D02*
X19640206Y-9234627D01*
X19935444Y-9177484D02*
X19840206Y-9177484D01*
X19840206Y-9177484D02*
X19830682Y-9272722D01*
X19830682Y-9272722D02*
X19840206Y-9263198D01*
X19840206Y-9263198D02*
X19859253Y-9253674D01*
X19859253Y-9253674D02*
X19906872Y-9253674D01*
X19906872Y-9253674D02*
X19925920Y-9263198D01*
X19925920Y-9263198D02*
X19935444Y-9272722D01*
X19935444Y-9272722D02*
X19944968Y-9291770D01*
X19944968Y-9291770D02*
X19944968Y-9339389D01*
X19944968Y-9339389D02*
X19935444Y-9358436D01*
X19935444Y-9358436D02*
X19925920Y-9367960D01*
X19925920Y-9367960D02*
X19906872Y-9377484D01*
X19906872Y-9377484D02*
X19859253Y-9377484D01*
X19859253Y-9377484D02*
X19840206Y-9367960D01*
X19840206Y-9367960D02*
X19830682Y-9358436D01*
X20011634Y-9177484D02*
X20144968Y-9177484D01*
X20144968Y-9177484D02*
X20059253Y-9377484D01*
X20211634Y-9177484D02*
X20211634Y-9215579D01*
X20287825Y-9177484D02*
X20287825Y-9215579D01*
X20583063Y-9453674D02*
X20573539Y-9444150D01*
X20573539Y-9444150D02*
X20554491Y-9415579D01*
X20554491Y-9415579D02*
X20544968Y-9396531D01*
X20544968Y-9396531D02*
X20535444Y-9367960D01*
X20535444Y-9367960D02*
X20525920Y-9320341D01*
X20525920Y-9320341D02*
X20525920Y-9282246D01*
X20525920Y-9282246D02*
X20535444Y-9234627D01*
X20535444Y-9234627D02*
X20544968Y-9206055D01*
X20544968Y-9206055D02*
X20554491Y-9187008D01*
X20554491Y-9187008D02*
X20573539Y-9158436D01*
X20573539Y-9158436D02*
X20583063Y-9148912D01*
X20649730Y-9196531D02*
X20659253Y-9187008D01*
X20659253Y-9187008D02*
X20678301Y-9177484D01*
X20678301Y-9177484D02*
X20725920Y-9177484D01*
X20725920Y-9177484D02*
X20744968Y-9187008D01*
X20744968Y-9187008D02*
X20754491Y-9196531D01*
X20754491Y-9196531D02*
X20764015Y-9215579D01*
X20764015Y-9215579D02*
X20764015Y-9234627D01*
X20764015Y-9234627D02*
X20754491Y-9263198D01*
X20754491Y-9263198D02*
X20640206Y-9377484D01*
X20640206Y-9377484D02*
X20764015Y-9377484D01*
X20830682Y-9177484D02*
X20954491Y-9177484D01*
X20954491Y-9177484D02*
X20887825Y-9253674D01*
X20887825Y-9253674D02*
X20916396Y-9253674D01*
X20916396Y-9253674D02*
X20935444Y-9263198D01*
X20935444Y-9263198D02*
X20944968Y-9272722D01*
X20944968Y-9272722D02*
X20954491Y-9291770D01*
X20954491Y-9291770D02*
X20954491Y-9339389D01*
X20954491Y-9339389D02*
X20944968Y-9358436D01*
X20944968Y-9358436D02*
X20935444Y-9367960D01*
X20935444Y-9367960D02*
X20916396Y-9377484D01*
X20916396Y-9377484D02*
X20859253Y-9377484D01*
X20859253Y-9377484D02*
X20840206Y-9367960D01*
X20840206Y-9367960D02*
X20830682Y-9358436D01*
X21192587Y-9377484D02*
X21192587Y-9177484D01*
X21278301Y-9377484D02*
X21278301Y-9272722D01*
X21278301Y-9272722D02*
X21268777Y-9253674D01*
X21268777Y-9253674D02*
X21249730Y-9244150D01*
X21249730Y-9244150D02*
X21221158Y-9244150D01*
X21221158Y-9244150D02*
X21202111Y-9253674D01*
X21202111Y-9253674D02*
X21192587Y-9263198D01*
X21402111Y-9377484D02*
X21383063Y-9367960D01*
X21383063Y-9367960D02*
X21373539Y-9358436D01*
X21373539Y-9358436D02*
X21364015Y-9339389D01*
X21364015Y-9339389D02*
X21364015Y-9282246D01*
X21364015Y-9282246D02*
X21373539Y-9263198D01*
X21373539Y-9263198D02*
X21383063Y-9253674D01*
X21383063Y-9253674D02*
X21402111Y-9244150D01*
X21402111Y-9244150D02*
X21430682Y-9244150D01*
X21430682Y-9244150D02*
X21449730Y-9253674D01*
X21449730Y-9253674D02*
X21459253Y-9263198D01*
X21459253Y-9263198D02*
X21468777Y-9282246D01*
X21468777Y-9282246D02*
X21468777Y-9339389D01*
X21468777Y-9339389D02*
X21459253Y-9358436D01*
X21459253Y-9358436D02*
X21449730Y-9367960D01*
X21449730Y-9367960D02*
X21430682Y-9377484D01*
X21430682Y-9377484D02*
X21402111Y-9377484D01*
X21583063Y-9377484D02*
X21564015Y-9367960D01*
X21564015Y-9367960D02*
X21554492Y-9348912D01*
X21554492Y-9348912D02*
X21554492Y-9177484D01*
X21735444Y-9367960D02*
X21716396Y-9377484D01*
X21716396Y-9377484D02*
X21678301Y-9377484D01*
X21678301Y-9377484D02*
X21659253Y-9367960D01*
X21659253Y-9367960D02*
X21649730Y-9348912D01*
X21649730Y-9348912D02*
X21649730Y-9272722D01*
X21649730Y-9272722D02*
X21659253Y-9253674D01*
X21659253Y-9253674D02*
X21678301Y-9244150D01*
X21678301Y-9244150D02*
X21716396Y-9244150D01*
X21716396Y-9244150D02*
X21735444Y-9253674D01*
X21735444Y-9253674D02*
X21744968Y-9272722D01*
X21744968Y-9272722D02*
X21744968Y-9291770D01*
X21744968Y-9291770D02*
X21649730Y-9310817D01*
X21821158Y-9367960D02*
X21840206Y-9377484D01*
X21840206Y-9377484D02*
X21878301Y-9377484D01*
X21878301Y-9377484D02*
X21897349Y-9367960D01*
X21897349Y-9367960D02*
X21906873Y-9348912D01*
X21906873Y-9348912D02*
X21906873Y-9339389D01*
X21906873Y-9339389D02*
X21897349Y-9320341D01*
X21897349Y-9320341D02*
X21878301Y-9310817D01*
X21878301Y-9310817D02*
X21849730Y-9310817D01*
X21849730Y-9310817D02*
X21830682Y-9301293D01*
X21830682Y-9301293D02*
X21821158Y-9282246D01*
X21821158Y-9282246D02*
X21821158Y-9272722D01*
X21821158Y-9272722D02*
X21830682Y-9253674D01*
X21830682Y-9253674D02*
X21849730Y-9244150D01*
X21849730Y-9244150D02*
X21878301Y-9244150D01*
X21878301Y-9244150D02*
X21897349Y-9253674D01*
X21973539Y-9453674D02*
X21983063Y-9444150D01*
X21983063Y-9444150D02*
X22002111Y-9415579D01*
X22002111Y-9415579D02*
X22011634Y-9396531D01*
X22011634Y-9396531D02*
X22021158Y-9367960D01*
X22021158Y-9367960D02*
X22030682Y-9320341D01*
X22030682Y-9320341D02*
X22030682Y-9282246D01*
X22030682Y-9282246D02*
X22021158Y-9234627D01*
X22021158Y-9234627D02*
X22011634Y-9206055D01*
X22011634Y-9206055D02*
X22002111Y-9187008D01*
X22002111Y-9187008D02*
X21983063Y-9158436D01*
X21983063Y-9158436D02*
X21973539Y-9148912D01*
D12*
X17008000Y-9550000D02*
G75*
G03*
X17008000Y-9550000I-50000J0D01*
G01*
D10*
X17373539Y-9641484D02*
X17259253Y-9641484D01*
X17316396Y-9641484D02*
X17316396Y-9441484D01*
X17316396Y-9441484D02*
X17297348Y-9470055D01*
X17297348Y-9470055D02*
X17278301Y-9489103D01*
X17278301Y-9489103D02*
X17259253Y-9498627D01*
X17459253Y-9622436D02*
X17468777Y-9631960D01*
X17468777Y-9631960D02*
X17459253Y-9641484D01*
X17459253Y-9641484D02*
X17449729Y-9631960D01*
X17449729Y-9631960D02*
X17459253Y-9622436D01*
X17459253Y-9622436D02*
X17459253Y-9641484D01*
X17592586Y-9441484D02*
X17611634Y-9441484D01*
X17611634Y-9441484D02*
X17630682Y-9451008D01*
X17630682Y-9451008D02*
X17640205Y-9460531D01*
X17640205Y-9460531D02*
X17649729Y-9479579D01*
X17649729Y-9479579D02*
X17659253Y-9517674D01*
X17659253Y-9517674D02*
X17659253Y-9565293D01*
X17659253Y-9565293D02*
X17649729Y-9603389D01*
X17649729Y-9603389D02*
X17640205Y-9622436D01*
X17640205Y-9622436D02*
X17630682Y-9631960D01*
X17630682Y-9631960D02*
X17611634Y-9641484D01*
X17611634Y-9641484D02*
X17592586Y-9641484D01*
X17592586Y-9641484D02*
X17573539Y-9631960D01*
X17573539Y-9631960D02*
X17564015Y-9622436D01*
X17564015Y-9622436D02*
X17554491Y-9603389D01*
X17554491Y-9603389D02*
X17544967Y-9565293D01*
X17544967Y-9565293D02*
X17544967Y-9517674D01*
X17544967Y-9517674D02*
X17554491Y-9479579D01*
X17554491Y-9479579D02*
X17564015Y-9460531D01*
X17564015Y-9460531D02*
X17573539Y-9451008D01*
X17573539Y-9451008D02*
X17592586Y-9441484D01*
X17783063Y-9441484D02*
X17802110Y-9441484D01*
X17802110Y-9441484D02*
X17821158Y-9451008D01*
X17821158Y-9451008D02*
X17830682Y-9460531D01*
X17830682Y-9460531D02*
X17840205Y-9479579D01*
X17840205Y-9479579D02*
X17849729Y-9517674D01*
X17849729Y-9517674D02*
X17849729Y-9565293D01*
X17849729Y-9565293D02*
X17840205Y-9603389D01*
X17840205Y-9603389D02*
X17830682Y-9622436D01*
X17830682Y-9622436D02*
X17821158Y-9631960D01*
X17821158Y-9631960D02*
X17802110Y-9641484D01*
X17802110Y-9641484D02*
X17783063Y-9641484D01*
X17783063Y-9641484D02*
X17764015Y-9631960D01*
X17764015Y-9631960D02*
X17754491Y-9622436D01*
X17754491Y-9622436D02*
X17744967Y-9603389D01*
X17744967Y-9603389D02*
X17735444Y-9565293D01*
X17735444Y-9565293D02*
X17735444Y-9517674D01*
X17735444Y-9517674D02*
X17744967Y-9479579D01*
X17744967Y-9479579D02*
X17754491Y-9460531D01*
X17754491Y-9460531D02*
X17764015Y-9451008D01*
X17764015Y-9451008D02*
X17783063Y-9441484D01*
X17973539Y-9441484D02*
X17992586Y-9441484D01*
X17992586Y-9441484D02*
X18011634Y-9451008D01*
X18011634Y-9451008D02*
X18021158Y-9460531D01*
X18021158Y-9460531D02*
X18030682Y-9479579D01*
X18030682Y-9479579D02*
X18040205Y-9517674D01*
X18040205Y-9517674D02*
X18040205Y-9565293D01*
X18040205Y-9565293D02*
X18030682Y-9603389D01*
X18030682Y-9603389D02*
X18021158Y-9622436D01*
X18021158Y-9622436D02*
X18011634Y-9631960D01*
X18011634Y-9631960D02*
X17992586Y-9641484D01*
X17992586Y-9641484D02*
X17973539Y-9641484D01*
X17973539Y-9641484D02*
X17954491Y-9631960D01*
X17954491Y-9631960D02*
X17944967Y-9622436D01*
X17944967Y-9622436D02*
X17935444Y-9603389D01*
X17935444Y-9603389D02*
X17925920Y-9565293D01*
X17925920Y-9565293D02*
X17925920Y-9517674D01*
X17925920Y-9517674D02*
X17935444Y-9479579D01*
X17935444Y-9479579D02*
X17944967Y-9460531D01*
X17944967Y-9460531D02*
X17954491Y-9451008D01*
X17954491Y-9451008D02*
X17973539Y-9441484D01*
X18125920Y-9641484D02*
X18125920Y-9508150D01*
X18125920Y-9527198D02*
X18135444Y-9517674D01*
X18135444Y-9517674D02*
X18154491Y-9508150D01*
X18154491Y-9508150D02*
X18183063Y-9508150D01*
X18183063Y-9508150D02*
X18202110Y-9517674D01*
X18202110Y-9517674D02*
X18211634Y-9536722D01*
X18211634Y-9536722D02*
X18211634Y-9641484D01*
X18211634Y-9536722D02*
X18221158Y-9517674D01*
X18221158Y-9517674D02*
X18240205Y-9508150D01*
X18240205Y-9508150D02*
X18268777Y-9508150D01*
X18268777Y-9508150D02*
X18287825Y-9517674D01*
X18287825Y-9517674D02*
X18297348Y-9536722D01*
X18297348Y-9536722D02*
X18297348Y-9641484D01*
X18392586Y-9641484D02*
X18392586Y-9508150D01*
X18392586Y-9527198D02*
X18402110Y-9517674D01*
X18402110Y-9517674D02*
X18421158Y-9508150D01*
X18421158Y-9508150D02*
X18449729Y-9508150D01*
X18449729Y-9508150D02*
X18468777Y-9517674D01*
X18468777Y-9517674D02*
X18478301Y-9536722D01*
X18478301Y-9536722D02*
X18478301Y-9641484D01*
X18478301Y-9536722D02*
X18487825Y-9517674D01*
X18487825Y-9517674D02*
X18506872Y-9508150D01*
X18506872Y-9508150D02*
X18535444Y-9508150D01*
X18535444Y-9508150D02*
X18554491Y-9517674D01*
X18554491Y-9517674D02*
X18564015Y-9536722D01*
X18564015Y-9536722D02*
X18564015Y-9641484D01*
X18954491Y-9431960D02*
X18783063Y-9689103D01*
X19211634Y-9441484D02*
X19230682Y-9441484D01*
X19230682Y-9441484D02*
X19249729Y-9451008D01*
X19249729Y-9451008D02*
X19259253Y-9460531D01*
X19259253Y-9460531D02*
X19268777Y-9479579D01*
X19268777Y-9479579D02*
X19278301Y-9517674D01*
X19278301Y-9517674D02*
X19278301Y-9565293D01*
X19278301Y-9565293D02*
X19268777Y-9603389D01*
X19268777Y-9603389D02*
X19259253Y-9622436D01*
X19259253Y-9622436D02*
X19249729Y-9631960D01*
X19249729Y-9631960D02*
X19230682Y-9641484D01*
X19230682Y-9641484D02*
X19211634Y-9641484D01*
X19211634Y-9641484D02*
X19192587Y-9631960D01*
X19192587Y-9631960D02*
X19183063Y-9622436D01*
X19183063Y-9622436D02*
X19173539Y-9603389D01*
X19173539Y-9603389D02*
X19164015Y-9565293D01*
X19164015Y-9565293D02*
X19164015Y-9517674D01*
X19164015Y-9517674D02*
X19173539Y-9479579D01*
X19173539Y-9479579D02*
X19183063Y-9460531D01*
X19183063Y-9460531D02*
X19192587Y-9451008D01*
X19192587Y-9451008D02*
X19211634Y-9441484D01*
X19364015Y-9622436D02*
X19373539Y-9631960D01*
X19373539Y-9631960D02*
X19364015Y-9641484D01*
X19364015Y-9641484D02*
X19354491Y-9631960D01*
X19354491Y-9631960D02*
X19364015Y-9622436D01*
X19364015Y-9622436D02*
X19364015Y-9641484D01*
X19497348Y-9441484D02*
X19516396Y-9441484D01*
X19516396Y-9441484D02*
X19535444Y-9451008D01*
X19535444Y-9451008D02*
X19544968Y-9460531D01*
X19544968Y-9460531D02*
X19554491Y-9479579D01*
X19554491Y-9479579D02*
X19564015Y-9517674D01*
X19564015Y-9517674D02*
X19564015Y-9565293D01*
X19564015Y-9565293D02*
X19554491Y-9603389D01*
X19554491Y-9603389D02*
X19544968Y-9622436D01*
X19544968Y-9622436D02*
X19535444Y-9631960D01*
X19535444Y-9631960D02*
X19516396Y-9641484D01*
X19516396Y-9641484D02*
X19497348Y-9641484D01*
X19497348Y-9641484D02*
X19478301Y-9631960D01*
X19478301Y-9631960D02*
X19468777Y-9622436D01*
X19468777Y-9622436D02*
X19459253Y-9603389D01*
X19459253Y-9603389D02*
X19449729Y-9565293D01*
X19449729Y-9565293D02*
X19449729Y-9517674D01*
X19449729Y-9517674D02*
X19459253Y-9479579D01*
X19459253Y-9479579D02*
X19468777Y-9460531D01*
X19468777Y-9460531D02*
X19478301Y-9451008D01*
X19478301Y-9451008D02*
X19497348Y-9441484D01*
X19630682Y-9441484D02*
X19754491Y-9441484D01*
X19754491Y-9441484D02*
X19687825Y-9517674D01*
X19687825Y-9517674D02*
X19716396Y-9517674D01*
X19716396Y-9517674D02*
X19735444Y-9527198D01*
X19735444Y-9527198D02*
X19744968Y-9536722D01*
X19744968Y-9536722D02*
X19754491Y-9555770D01*
X19754491Y-9555770D02*
X19754491Y-9603389D01*
X19754491Y-9603389D02*
X19744968Y-9622436D01*
X19744968Y-9622436D02*
X19735444Y-9631960D01*
X19735444Y-9631960D02*
X19716396Y-9641484D01*
X19716396Y-9641484D02*
X19659253Y-9641484D01*
X19659253Y-9641484D02*
X19640206Y-9631960D01*
X19640206Y-9631960D02*
X19630682Y-9622436D01*
X19849729Y-9641484D02*
X19887825Y-9641484D01*
X19887825Y-9641484D02*
X19906872Y-9631960D01*
X19906872Y-9631960D02*
X19916396Y-9622436D01*
X19916396Y-9622436D02*
X19935444Y-9593865D01*
X19935444Y-9593865D02*
X19944968Y-9555770D01*
X19944968Y-9555770D02*
X19944968Y-9479579D01*
X19944968Y-9479579D02*
X19935444Y-9460531D01*
X19935444Y-9460531D02*
X19925920Y-9451008D01*
X19925920Y-9451008D02*
X19906872Y-9441484D01*
X19906872Y-9441484D02*
X19868777Y-9441484D01*
X19868777Y-9441484D02*
X19849729Y-9451008D01*
X19849729Y-9451008D02*
X19840206Y-9460531D01*
X19840206Y-9460531D02*
X19830682Y-9479579D01*
X19830682Y-9479579D02*
X19830682Y-9527198D01*
X19830682Y-9527198D02*
X19840206Y-9546246D01*
X19840206Y-9546246D02*
X19849729Y-9555770D01*
X19849729Y-9555770D02*
X19868777Y-9565293D01*
X19868777Y-9565293D02*
X19906872Y-9565293D01*
X19906872Y-9565293D02*
X19925920Y-9555770D01*
X19925920Y-9555770D02*
X19935444Y-9546246D01*
X19935444Y-9546246D02*
X19944968Y-9527198D01*
X20116396Y-9508150D02*
X20116396Y-9641484D01*
X20068777Y-9431960D02*
X20021158Y-9574817D01*
X20021158Y-9574817D02*
X20144968Y-9574817D01*
X20211634Y-9441484D02*
X20211634Y-9479579D01*
X20287825Y-9441484D02*
X20287825Y-9479579D01*
X20583063Y-9717674D02*
X20573539Y-9708150D01*
X20573539Y-9708150D02*
X20554491Y-9679579D01*
X20554491Y-9679579D02*
X20544968Y-9660531D01*
X20544968Y-9660531D02*
X20535444Y-9631960D01*
X20535444Y-9631960D02*
X20525920Y-9584341D01*
X20525920Y-9584341D02*
X20525920Y-9546246D01*
X20525920Y-9546246D02*
X20535444Y-9498627D01*
X20535444Y-9498627D02*
X20544968Y-9470055D01*
X20544968Y-9470055D02*
X20554491Y-9451008D01*
X20554491Y-9451008D02*
X20573539Y-9422436D01*
X20573539Y-9422436D02*
X20583063Y-9412912D01*
X20649730Y-9460531D02*
X20659253Y-9451008D01*
X20659253Y-9451008D02*
X20678301Y-9441484D01*
X20678301Y-9441484D02*
X20725920Y-9441484D01*
X20725920Y-9441484D02*
X20744968Y-9451008D01*
X20744968Y-9451008D02*
X20754491Y-9460531D01*
X20754491Y-9460531D02*
X20764015Y-9479579D01*
X20764015Y-9479579D02*
X20764015Y-9498627D01*
X20764015Y-9498627D02*
X20754491Y-9527198D01*
X20754491Y-9527198D02*
X20640206Y-9641484D01*
X20640206Y-9641484D02*
X20764015Y-9641484D01*
X20840206Y-9460531D02*
X20849730Y-9451008D01*
X20849730Y-9451008D02*
X20868777Y-9441484D01*
X20868777Y-9441484D02*
X20916396Y-9441484D01*
X20916396Y-9441484D02*
X20935444Y-9451008D01*
X20935444Y-9451008D02*
X20944968Y-9460531D01*
X20944968Y-9460531D02*
X20954491Y-9479579D01*
X20954491Y-9479579D02*
X20954491Y-9498627D01*
X20954491Y-9498627D02*
X20944968Y-9527198D01*
X20944968Y-9527198D02*
X20830682Y-9641484D01*
X20830682Y-9641484D02*
X20954491Y-9641484D01*
X21192587Y-9641484D02*
X21192587Y-9441484D01*
X21278301Y-9641484D02*
X21278301Y-9536722D01*
X21278301Y-9536722D02*
X21268777Y-9517674D01*
X21268777Y-9517674D02*
X21249730Y-9508150D01*
X21249730Y-9508150D02*
X21221158Y-9508150D01*
X21221158Y-9508150D02*
X21202111Y-9517674D01*
X21202111Y-9517674D02*
X21192587Y-9527198D01*
X21402111Y-9641484D02*
X21383063Y-9631960D01*
X21383063Y-9631960D02*
X21373539Y-9622436D01*
X21373539Y-9622436D02*
X21364015Y-9603389D01*
X21364015Y-9603389D02*
X21364015Y-9546246D01*
X21364015Y-9546246D02*
X21373539Y-9527198D01*
X21373539Y-9527198D02*
X21383063Y-9517674D01*
X21383063Y-9517674D02*
X21402111Y-9508150D01*
X21402111Y-9508150D02*
X21430682Y-9508150D01*
X21430682Y-9508150D02*
X21449730Y-9517674D01*
X21449730Y-9517674D02*
X21459253Y-9527198D01*
X21459253Y-9527198D02*
X21468777Y-9546246D01*
X21468777Y-9546246D02*
X21468777Y-9603389D01*
X21468777Y-9603389D02*
X21459253Y-9622436D01*
X21459253Y-9622436D02*
X21449730Y-9631960D01*
X21449730Y-9631960D02*
X21430682Y-9641484D01*
X21430682Y-9641484D02*
X21402111Y-9641484D01*
X21583063Y-9641484D02*
X21564015Y-9631960D01*
X21564015Y-9631960D02*
X21554492Y-9612912D01*
X21554492Y-9612912D02*
X21554492Y-9441484D01*
X21735444Y-9631960D02*
X21716396Y-9641484D01*
X21716396Y-9641484D02*
X21678301Y-9641484D01*
X21678301Y-9641484D02*
X21659253Y-9631960D01*
X21659253Y-9631960D02*
X21649730Y-9612912D01*
X21649730Y-9612912D02*
X21649730Y-9536722D01*
X21649730Y-9536722D02*
X21659253Y-9517674D01*
X21659253Y-9517674D02*
X21678301Y-9508150D01*
X21678301Y-9508150D02*
X21716396Y-9508150D01*
X21716396Y-9508150D02*
X21735444Y-9517674D01*
X21735444Y-9517674D02*
X21744968Y-9536722D01*
X21744968Y-9536722D02*
X21744968Y-9555770D01*
X21744968Y-9555770D02*
X21649730Y-9574817D01*
X21821158Y-9631960D02*
X21840206Y-9641484D01*
X21840206Y-9641484D02*
X21878301Y-9641484D01*
X21878301Y-9641484D02*
X21897349Y-9631960D01*
X21897349Y-9631960D02*
X21906873Y-9612912D01*
X21906873Y-9612912D02*
X21906873Y-9603389D01*
X21906873Y-9603389D02*
X21897349Y-9584341D01*
X21897349Y-9584341D02*
X21878301Y-9574817D01*
X21878301Y-9574817D02*
X21849730Y-9574817D01*
X21849730Y-9574817D02*
X21830682Y-9565293D01*
X21830682Y-9565293D02*
X21821158Y-9546246D01*
X21821158Y-9546246D02*
X21821158Y-9536722D01*
X21821158Y-9536722D02*
X21830682Y-9517674D01*
X21830682Y-9517674D02*
X21849730Y-9508150D01*
X21849730Y-9508150D02*
X21878301Y-9508150D01*
X21878301Y-9508150D02*
X21897349Y-9517674D01*
X21973539Y-9717674D02*
X21983063Y-9708150D01*
X21983063Y-9708150D02*
X22002111Y-9679579D01*
X22002111Y-9679579D02*
X22011634Y-9660531D01*
X22011634Y-9660531D02*
X22021158Y-9631960D01*
X22021158Y-9631960D02*
X22030682Y-9584341D01*
X22030682Y-9584341D02*
X22030682Y-9546246D01*
X22030682Y-9546246D02*
X22021158Y-9498627D01*
X22021158Y-9498627D02*
X22011634Y-9470055D01*
X22011634Y-9470055D02*
X22002111Y-9451008D01*
X22002111Y-9451008D02*
X21983063Y-9422436D01*
X21983063Y-9422436D02*
X21973539Y-9412912D01*
D13*
X16953000Y-9759000D02*
X16953000Y-9869000D01*
X16898000Y-9814000D02*
X17008000Y-9814000D01*
D10*
X17373539Y-9905484D02*
X17259253Y-9905484D01*
X17316396Y-9905484D02*
X17316396Y-9705484D01*
X17316396Y-9705484D02*
X17297348Y-9734055D01*
X17297348Y-9734055D02*
X17278301Y-9753103D01*
X17278301Y-9753103D02*
X17259253Y-9762627D01*
X17459253Y-9886436D02*
X17468777Y-9895960D01*
X17468777Y-9895960D02*
X17459253Y-9905484D01*
X17459253Y-9905484D02*
X17449729Y-9895960D01*
X17449729Y-9895960D02*
X17459253Y-9886436D01*
X17459253Y-9886436D02*
X17459253Y-9905484D01*
X17659253Y-9905484D02*
X17544967Y-9905484D01*
X17602110Y-9905484D02*
X17602110Y-9705484D01*
X17602110Y-9705484D02*
X17583063Y-9734055D01*
X17583063Y-9734055D02*
X17564015Y-9753103D01*
X17564015Y-9753103D02*
X17544967Y-9762627D01*
X17783063Y-9705484D02*
X17802110Y-9705484D01*
X17802110Y-9705484D02*
X17821158Y-9715008D01*
X17821158Y-9715008D02*
X17830682Y-9724531D01*
X17830682Y-9724531D02*
X17840205Y-9743579D01*
X17840205Y-9743579D02*
X17849729Y-9781674D01*
X17849729Y-9781674D02*
X17849729Y-9829293D01*
X17849729Y-9829293D02*
X17840205Y-9867389D01*
X17840205Y-9867389D02*
X17830682Y-9886436D01*
X17830682Y-9886436D02*
X17821158Y-9895960D01*
X17821158Y-9895960D02*
X17802110Y-9905484D01*
X17802110Y-9905484D02*
X17783063Y-9905484D01*
X17783063Y-9905484D02*
X17764015Y-9895960D01*
X17764015Y-9895960D02*
X17754491Y-9886436D01*
X17754491Y-9886436D02*
X17744967Y-9867389D01*
X17744967Y-9867389D02*
X17735444Y-9829293D01*
X17735444Y-9829293D02*
X17735444Y-9781674D01*
X17735444Y-9781674D02*
X17744967Y-9743579D01*
X17744967Y-9743579D02*
X17754491Y-9724531D01*
X17754491Y-9724531D02*
X17764015Y-9715008D01*
X17764015Y-9715008D02*
X17783063Y-9705484D01*
X17973539Y-9705484D02*
X17992586Y-9705484D01*
X17992586Y-9705484D02*
X18011634Y-9715008D01*
X18011634Y-9715008D02*
X18021158Y-9724531D01*
X18021158Y-9724531D02*
X18030682Y-9743579D01*
X18030682Y-9743579D02*
X18040205Y-9781674D01*
X18040205Y-9781674D02*
X18040205Y-9829293D01*
X18040205Y-9829293D02*
X18030682Y-9867389D01*
X18030682Y-9867389D02*
X18021158Y-9886436D01*
X18021158Y-9886436D02*
X18011634Y-9895960D01*
X18011634Y-9895960D02*
X17992586Y-9905484D01*
X17992586Y-9905484D02*
X17973539Y-9905484D01*
X17973539Y-9905484D02*
X17954491Y-9895960D01*
X17954491Y-9895960D02*
X17944967Y-9886436D01*
X17944967Y-9886436D02*
X17935444Y-9867389D01*
X17935444Y-9867389D02*
X17925920Y-9829293D01*
X17925920Y-9829293D02*
X17925920Y-9781674D01*
X17925920Y-9781674D02*
X17935444Y-9743579D01*
X17935444Y-9743579D02*
X17944967Y-9724531D01*
X17944967Y-9724531D02*
X17954491Y-9715008D01*
X17954491Y-9715008D02*
X17973539Y-9705484D01*
X18125920Y-9905484D02*
X18125920Y-9772150D01*
X18125920Y-9791198D02*
X18135444Y-9781674D01*
X18135444Y-9781674D02*
X18154491Y-9772150D01*
X18154491Y-9772150D02*
X18183063Y-9772150D01*
X18183063Y-9772150D02*
X18202110Y-9781674D01*
X18202110Y-9781674D02*
X18211634Y-9800722D01*
X18211634Y-9800722D02*
X18211634Y-9905484D01*
X18211634Y-9800722D02*
X18221158Y-9781674D01*
X18221158Y-9781674D02*
X18240205Y-9772150D01*
X18240205Y-9772150D02*
X18268777Y-9772150D01*
X18268777Y-9772150D02*
X18287825Y-9781674D01*
X18287825Y-9781674D02*
X18297348Y-9800722D01*
X18297348Y-9800722D02*
X18297348Y-9905484D01*
X18392586Y-9905484D02*
X18392586Y-9772150D01*
X18392586Y-9791198D02*
X18402110Y-9781674D01*
X18402110Y-9781674D02*
X18421158Y-9772150D01*
X18421158Y-9772150D02*
X18449729Y-9772150D01*
X18449729Y-9772150D02*
X18468777Y-9781674D01*
X18468777Y-9781674D02*
X18478301Y-9800722D01*
X18478301Y-9800722D02*
X18478301Y-9905484D01*
X18478301Y-9800722D02*
X18487825Y-9781674D01*
X18487825Y-9781674D02*
X18506872Y-9772150D01*
X18506872Y-9772150D02*
X18535444Y-9772150D01*
X18535444Y-9772150D02*
X18554491Y-9781674D01*
X18554491Y-9781674D02*
X18564015Y-9800722D01*
X18564015Y-9800722D02*
X18564015Y-9905484D01*
X18954491Y-9695960D02*
X18783063Y-9953103D01*
X19211634Y-9705484D02*
X19230682Y-9705484D01*
X19230682Y-9705484D02*
X19249729Y-9715008D01*
X19249729Y-9715008D02*
X19259253Y-9724531D01*
X19259253Y-9724531D02*
X19268777Y-9743579D01*
X19268777Y-9743579D02*
X19278301Y-9781674D01*
X19278301Y-9781674D02*
X19278301Y-9829293D01*
X19278301Y-9829293D02*
X19268777Y-9867389D01*
X19268777Y-9867389D02*
X19259253Y-9886436D01*
X19259253Y-9886436D02*
X19249729Y-9895960D01*
X19249729Y-9895960D02*
X19230682Y-9905484D01*
X19230682Y-9905484D02*
X19211634Y-9905484D01*
X19211634Y-9905484D02*
X19192587Y-9895960D01*
X19192587Y-9895960D02*
X19183063Y-9886436D01*
X19183063Y-9886436D02*
X19173539Y-9867389D01*
X19173539Y-9867389D02*
X19164015Y-9829293D01*
X19164015Y-9829293D02*
X19164015Y-9781674D01*
X19164015Y-9781674D02*
X19173539Y-9743579D01*
X19173539Y-9743579D02*
X19183063Y-9724531D01*
X19183063Y-9724531D02*
X19192587Y-9715008D01*
X19192587Y-9715008D02*
X19211634Y-9705484D01*
X19364015Y-9886436D02*
X19373539Y-9895960D01*
X19373539Y-9895960D02*
X19364015Y-9905484D01*
X19364015Y-9905484D02*
X19354491Y-9895960D01*
X19354491Y-9895960D02*
X19364015Y-9886436D01*
X19364015Y-9886436D02*
X19364015Y-9905484D01*
X19497348Y-9705484D02*
X19516396Y-9705484D01*
X19516396Y-9705484D02*
X19535444Y-9715008D01*
X19535444Y-9715008D02*
X19544968Y-9724531D01*
X19544968Y-9724531D02*
X19554491Y-9743579D01*
X19554491Y-9743579D02*
X19564015Y-9781674D01*
X19564015Y-9781674D02*
X19564015Y-9829293D01*
X19564015Y-9829293D02*
X19554491Y-9867389D01*
X19554491Y-9867389D02*
X19544968Y-9886436D01*
X19544968Y-9886436D02*
X19535444Y-9895960D01*
X19535444Y-9895960D02*
X19516396Y-9905484D01*
X19516396Y-9905484D02*
X19497348Y-9905484D01*
X19497348Y-9905484D02*
X19478301Y-9895960D01*
X19478301Y-9895960D02*
X19468777Y-9886436D01*
X19468777Y-9886436D02*
X19459253Y-9867389D01*
X19459253Y-9867389D02*
X19449729Y-9829293D01*
X19449729Y-9829293D02*
X19449729Y-9781674D01*
X19449729Y-9781674D02*
X19459253Y-9743579D01*
X19459253Y-9743579D02*
X19468777Y-9724531D01*
X19468777Y-9724531D02*
X19478301Y-9715008D01*
X19478301Y-9715008D02*
X19497348Y-9705484D01*
X19735444Y-9772150D02*
X19735444Y-9905484D01*
X19687825Y-9695960D02*
X19640206Y-9838817D01*
X19640206Y-9838817D02*
X19764015Y-9838817D01*
X19821158Y-9705484D02*
X19944968Y-9705484D01*
X19944968Y-9705484D02*
X19878301Y-9781674D01*
X19878301Y-9781674D02*
X19906872Y-9781674D01*
X19906872Y-9781674D02*
X19925920Y-9791198D01*
X19925920Y-9791198D02*
X19935444Y-9800722D01*
X19935444Y-9800722D02*
X19944968Y-9819770D01*
X19944968Y-9819770D02*
X19944968Y-9867389D01*
X19944968Y-9867389D02*
X19935444Y-9886436D01*
X19935444Y-9886436D02*
X19925920Y-9895960D01*
X19925920Y-9895960D02*
X19906872Y-9905484D01*
X19906872Y-9905484D02*
X19849729Y-9905484D01*
X19849729Y-9905484D02*
X19830682Y-9895960D01*
X19830682Y-9895960D02*
X19821158Y-9886436D01*
X20011634Y-9705484D02*
X20135444Y-9705484D01*
X20135444Y-9705484D02*
X20068777Y-9781674D01*
X20068777Y-9781674D02*
X20097349Y-9781674D01*
X20097349Y-9781674D02*
X20116396Y-9791198D01*
X20116396Y-9791198D02*
X20125920Y-9800722D01*
X20125920Y-9800722D02*
X20135444Y-9819770D01*
X20135444Y-9819770D02*
X20135444Y-9867389D01*
X20135444Y-9867389D02*
X20125920Y-9886436D01*
X20125920Y-9886436D02*
X20116396Y-9895960D01*
X20116396Y-9895960D02*
X20097349Y-9905484D01*
X20097349Y-9905484D02*
X20040206Y-9905484D01*
X20040206Y-9905484D02*
X20021158Y-9895960D01*
X20021158Y-9895960D02*
X20011634Y-9886436D01*
X20211634Y-9705484D02*
X20211634Y-9743579D01*
X20287825Y-9705484D02*
X20287825Y-9743579D01*
X20583063Y-9981674D02*
X20573539Y-9972150D01*
X20573539Y-9972150D02*
X20554491Y-9943579D01*
X20554491Y-9943579D02*
X20544968Y-9924531D01*
X20544968Y-9924531D02*
X20535444Y-9895960D01*
X20535444Y-9895960D02*
X20525920Y-9848341D01*
X20525920Y-9848341D02*
X20525920Y-9810246D01*
X20525920Y-9810246D02*
X20535444Y-9762627D01*
X20535444Y-9762627D02*
X20544968Y-9734055D01*
X20544968Y-9734055D02*
X20554491Y-9715008D01*
X20554491Y-9715008D02*
X20573539Y-9686436D01*
X20573539Y-9686436D02*
X20583063Y-9676912D01*
X20744968Y-9772150D02*
X20744968Y-9905484D01*
X20697349Y-9695960D02*
X20649730Y-9838817D01*
X20649730Y-9838817D02*
X20773539Y-9838817D01*
X20935444Y-9772150D02*
X20935444Y-9905484D01*
X20887825Y-9695960D02*
X20840206Y-9838817D01*
X20840206Y-9838817D02*
X20964015Y-9838817D01*
X21192587Y-9905484D02*
X21192587Y-9705484D01*
X21278301Y-9905484D02*
X21278301Y-9800722D01*
X21278301Y-9800722D02*
X21268777Y-9781674D01*
X21268777Y-9781674D02*
X21249730Y-9772150D01*
X21249730Y-9772150D02*
X21221158Y-9772150D01*
X21221158Y-9772150D02*
X21202111Y-9781674D01*
X21202111Y-9781674D02*
X21192587Y-9791198D01*
X21402111Y-9905484D02*
X21383063Y-9895960D01*
X21383063Y-9895960D02*
X21373539Y-9886436D01*
X21373539Y-9886436D02*
X21364015Y-9867389D01*
X21364015Y-9867389D02*
X21364015Y-9810246D01*
X21364015Y-9810246D02*
X21373539Y-9791198D01*
X21373539Y-9791198D02*
X21383063Y-9781674D01*
X21383063Y-9781674D02*
X21402111Y-9772150D01*
X21402111Y-9772150D02*
X21430682Y-9772150D01*
X21430682Y-9772150D02*
X21449730Y-9781674D01*
X21449730Y-9781674D02*
X21459253Y-9791198D01*
X21459253Y-9791198D02*
X21468777Y-9810246D01*
X21468777Y-9810246D02*
X21468777Y-9867389D01*
X21468777Y-9867389D02*
X21459253Y-9886436D01*
X21459253Y-9886436D02*
X21449730Y-9895960D01*
X21449730Y-9895960D02*
X21430682Y-9905484D01*
X21430682Y-9905484D02*
X21402111Y-9905484D01*
X21583063Y-9905484D02*
X21564015Y-9895960D01*
X21564015Y-9895960D02*
X21554492Y-9876912D01*
X21554492Y-9876912D02*
X21554492Y-9705484D01*
X21735444Y-9895960D02*
X21716396Y-9905484D01*
X21716396Y-9905484D02*
X21678301Y-9905484D01*
X21678301Y-9905484D02*
X21659253Y-9895960D01*
X21659253Y-9895960D02*
X21649730Y-9876912D01*
X21649730Y-9876912D02*
X21649730Y-9800722D01*
X21649730Y-9800722D02*
X21659253Y-9781674D01*
X21659253Y-9781674D02*
X21678301Y-9772150D01*
X21678301Y-9772150D02*
X21716396Y-9772150D01*
X21716396Y-9772150D02*
X21735444Y-9781674D01*
X21735444Y-9781674D02*
X21744968Y-9800722D01*
X21744968Y-9800722D02*
X21744968Y-9819770D01*
X21744968Y-9819770D02*
X21649730Y-9838817D01*
X21821158Y-9895960D02*
X21840206Y-9905484D01*
X21840206Y-9905484D02*
X21878301Y-9905484D01*
X21878301Y-9905484D02*
X21897349Y-9895960D01*
X21897349Y-9895960D02*
X21906873Y-9876912D01*
X21906873Y-9876912D02*
X21906873Y-9867389D01*
X21906873Y-9867389D02*
X21897349Y-9848341D01*
X21897349Y-9848341D02*
X21878301Y-9838817D01*
X21878301Y-9838817D02*
X21849730Y-9838817D01*
X21849730Y-9838817D02*
X21830682Y-9829293D01*
X21830682Y-9829293D02*
X21821158Y-9810246D01*
X21821158Y-9810246D02*
X21821158Y-9800722D01*
X21821158Y-9800722D02*
X21830682Y-9781674D01*
X21830682Y-9781674D02*
X21849730Y-9772150D01*
X21849730Y-9772150D02*
X21878301Y-9772150D01*
X21878301Y-9772150D02*
X21897349Y-9781674D01*
X21973539Y-9981674D02*
X21983063Y-9972150D01*
X21983063Y-9972150D02*
X22002111Y-9943579D01*
X22002111Y-9943579D02*
X22011634Y-9924531D01*
X22011634Y-9924531D02*
X22021158Y-9895960D01*
X22021158Y-9895960D02*
X22030682Y-9848341D01*
X22030682Y-9848341D02*
X22030682Y-9810246D01*
X22030682Y-9810246D02*
X22021158Y-9762627D01*
X22021158Y-9762627D02*
X22011634Y-9734055D01*
X22011634Y-9734055D02*
X22002111Y-9715008D01*
X22002111Y-9715008D02*
X21983063Y-9686436D01*
X21983063Y-9686436D02*
X21973539Y-9676912D01*
D14*
X16989695Y-10122195D02*
X16989695Y-10033805D01*
X16901305Y-10033805D01*
X16901305Y-10122195D01*
X16989695Y-10122195D01*
D10*
X17373539Y-10169484D02*
X17259253Y-10169484D01*
X17316396Y-10169484D02*
X17316396Y-9969484D01*
X17316396Y-9969484D02*
X17297348Y-9998055D01*
X17297348Y-9998055D02*
X17278301Y-10017103D01*
X17278301Y-10017103D02*
X17259253Y-10026627D01*
X17459253Y-10150436D02*
X17468777Y-10159960D01*
X17468777Y-10159960D02*
X17459253Y-10169484D01*
X17459253Y-10169484D02*
X17449729Y-10159960D01*
X17449729Y-10159960D02*
X17459253Y-10150436D01*
X17459253Y-10150436D02*
X17459253Y-10169484D01*
X17544967Y-9988531D02*
X17554491Y-9979008D01*
X17554491Y-9979008D02*
X17573539Y-9969484D01*
X17573539Y-9969484D02*
X17621158Y-9969484D01*
X17621158Y-9969484D02*
X17640205Y-9979008D01*
X17640205Y-9979008D02*
X17649729Y-9988531D01*
X17649729Y-9988531D02*
X17659253Y-10007579D01*
X17659253Y-10007579D02*
X17659253Y-10026627D01*
X17659253Y-10026627D02*
X17649729Y-10055198D01*
X17649729Y-10055198D02*
X17535444Y-10169484D01*
X17535444Y-10169484D02*
X17659253Y-10169484D01*
X17840205Y-9969484D02*
X17744967Y-9969484D01*
X17744967Y-9969484D02*
X17735444Y-10064722D01*
X17735444Y-10064722D02*
X17744967Y-10055198D01*
X17744967Y-10055198D02*
X17764015Y-10045674D01*
X17764015Y-10045674D02*
X17811634Y-10045674D01*
X17811634Y-10045674D02*
X17830682Y-10055198D01*
X17830682Y-10055198D02*
X17840205Y-10064722D01*
X17840205Y-10064722D02*
X17849729Y-10083770D01*
X17849729Y-10083770D02*
X17849729Y-10131389D01*
X17849729Y-10131389D02*
X17840205Y-10150436D01*
X17840205Y-10150436D02*
X17830682Y-10159960D01*
X17830682Y-10159960D02*
X17811634Y-10169484D01*
X17811634Y-10169484D02*
X17764015Y-10169484D01*
X17764015Y-10169484D02*
X17744967Y-10159960D01*
X17744967Y-10159960D02*
X17735444Y-10150436D01*
X17973539Y-9969484D02*
X17992586Y-9969484D01*
X17992586Y-9969484D02*
X18011634Y-9979008D01*
X18011634Y-9979008D02*
X18021158Y-9988531D01*
X18021158Y-9988531D02*
X18030682Y-10007579D01*
X18030682Y-10007579D02*
X18040205Y-10045674D01*
X18040205Y-10045674D02*
X18040205Y-10093293D01*
X18040205Y-10093293D02*
X18030682Y-10131389D01*
X18030682Y-10131389D02*
X18021158Y-10150436D01*
X18021158Y-10150436D02*
X18011634Y-10159960D01*
X18011634Y-10159960D02*
X17992586Y-10169484D01*
X17992586Y-10169484D02*
X17973539Y-10169484D01*
X17973539Y-10169484D02*
X17954491Y-10159960D01*
X17954491Y-10159960D02*
X17944967Y-10150436D01*
X17944967Y-10150436D02*
X17935444Y-10131389D01*
X17935444Y-10131389D02*
X17925920Y-10093293D01*
X17925920Y-10093293D02*
X17925920Y-10045674D01*
X17925920Y-10045674D02*
X17935444Y-10007579D01*
X17935444Y-10007579D02*
X17944967Y-9988531D01*
X17944967Y-9988531D02*
X17954491Y-9979008D01*
X17954491Y-9979008D02*
X17973539Y-9969484D01*
X18125920Y-10169484D02*
X18125920Y-10036150D01*
X18125920Y-10055198D02*
X18135444Y-10045674D01*
X18135444Y-10045674D02*
X18154491Y-10036150D01*
X18154491Y-10036150D02*
X18183063Y-10036150D01*
X18183063Y-10036150D02*
X18202110Y-10045674D01*
X18202110Y-10045674D02*
X18211634Y-10064722D01*
X18211634Y-10064722D02*
X18211634Y-10169484D01*
X18211634Y-10064722D02*
X18221158Y-10045674D01*
X18221158Y-10045674D02*
X18240205Y-10036150D01*
X18240205Y-10036150D02*
X18268777Y-10036150D01*
X18268777Y-10036150D02*
X18287825Y-10045674D01*
X18287825Y-10045674D02*
X18297348Y-10064722D01*
X18297348Y-10064722D02*
X18297348Y-10169484D01*
X18392586Y-10169484D02*
X18392586Y-10036150D01*
X18392586Y-10055198D02*
X18402110Y-10045674D01*
X18402110Y-10045674D02*
X18421158Y-10036150D01*
X18421158Y-10036150D02*
X18449729Y-10036150D01*
X18449729Y-10036150D02*
X18468777Y-10045674D01*
X18468777Y-10045674D02*
X18478301Y-10064722D01*
X18478301Y-10064722D02*
X18478301Y-10169484D01*
X18478301Y-10064722D02*
X18487825Y-10045674D01*
X18487825Y-10045674D02*
X18506872Y-10036150D01*
X18506872Y-10036150D02*
X18535444Y-10036150D01*
X18535444Y-10036150D02*
X18554491Y-10045674D01*
X18554491Y-10045674D02*
X18564015Y-10064722D01*
X18564015Y-10064722D02*
X18564015Y-10169484D01*
X18954491Y-9959960D02*
X18783063Y-10217103D01*
X19211634Y-9969484D02*
X19230682Y-9969484D01*
X19230682Y-9969484D02*
X19249729Y-9979008D01*
X19249729Y-9979008D02*
X19259253Y-9988531D01*
X19259253Y-9988531D02*
X19268777Y-10007579D01*
X19268777Y-10007579D02*
X19278301Y-10045674D01*
X19278301Y-10045674D02*
X19278301Y-10093293D01*
X19278301Y-10093293D02*
X19268777Y-10131389D01*
X19268777Y-10131389D02*
X19259253Y-10150436D01*
X19259253Y-10150436D02*
X19249729Y-10159960D01*
X19249729Y-10159960D02*
X19230682Y-10169484D01*
X19230682Y-10169484D02*
X19211634Y-10169484D01*
X19211634Y-10169484D02*
X19192587Y-10159960D01*
X19192587Y-10159960D02*
X19183063Y-10150436D01*
X19183063Y-10150436D02*
X19173539Y-10131389D01*
X19173539Y-10131389D02*
X19164015Y-10093293D01*
X19164015Y-10093293D02*
X19164015Y-10045674D01*
X19164015Y-10045674D02*
X19173539Y-10007579D01*
X19173539Y-10007579D02*
X19183063Y-9988531D01*
X19183063Y-9988531D02*
X19192587Y-9979008D01*
X19192587Y-9979008D02*
X19211634Y-9969484D01*
X19364015Y-10150436D02*
X19373539Y-10159960D01*
X19373539Y-10159960D02*
X19364015Y-10169484D01*
X19364015Y-10169484D02*
X19354491Y-10159960D01*
X19354491Y-10159960D02*
X19364015Y-10150436D01*
X19364015Y-10150436D02*
X19364015Y-10169484D01*
X19497348Y-9969484D02*
X19516396Y-9969484D01*
X19516396Y-9969484D02*
X19535444Y-9979008D01*
X19535444Y-9979008D02*
X19544968Y-9988531D01*
X19544968Y-9988531D02*
X19554491Y-10007579D01*
X19554491Y-10007579D02*
X19564015Y-10045674D01*
X19564015Y-10045674D02*
X19564015Y-10093293D01*
X19564015Y-10093293D02*
X19554491Y-10131389D01*
X19554491Y-10131389D02*
X19544968Y-10150436D01*
X19544968Y-10150436D02*
X19535444Y-10159960D01*
X19535444Y-10159960D02*
X19516396Y-10169484D01*
X19516396Y-10169484D02*
X19497348Y-10169484D01*
X19497348Y-10169484D02*
X19478301Y-10159960D01*
X19478301Y-10159960D02*
X19468777Y-10150436D01*
X19468777Y-10150436D02*
X19459253Y-10131389D01*
X19459253Y-10131389D02*
X19449729Y-10093293D01*
X19449729Y-10093293D02*
X19449729Y-10045674D01*
X19449729Y-10045674D02*
X19459253Y-10007579D01*
X19459253Y-10007579D02*
X19468777Y-9988531D01*
X19468777Y-9988531D02*
X19478301Y-9979008D01*
X19478301Y-9979008D02*
X19497348Y-9969484D01*
X19735444Y-10036150D02*
X19735444Y-10169484D01*
X19687825Y-9959960D02*
X19640206Y-10102817D01*
X19640206Y-10102817D02*
X19764015Y-10102817D01*
X19849729Y-10169484D02*
X19887825Y-10169484D01*
X19887825Y-10169484D02*
X19906872Y-10159960D01*
X19906872Y-10159960D02*
X19916396Y-10150436D01*
X19916396Y-10150436D02*
X19935444Y-10121865D01*
X19935444Y-10121865D02*
X19944968Y-10083770D01*
X19944968Y-10083770D02*
X19944968Y-10007579D01*
X19944968Y-10007579D02*
X19935444Y-9988531D01*
X19935444Y-9988531D02*
X19925920Y-9979008D01*
X19925920Y-9979008D02*
X19906872Y-9969484D01*
X19906872Y-9969484D02*
X19868777Y-9969484D01*
X19868777Y-9969484D02*
X19849729Y-9979008D01*
X19849729Y-9979008D02*
X19840206Y-9988531D01*
X19840206Y-9988531D02*
X19830682Y-10007579D01*
X19830682Y-10007579D02*
X19830682Y-10055198D01*
X19830682Y-10055198D02*
X19840206Y-10074246D01*
X19840206Y-10074246D02*
X19849729Y-10083770D01*
X19849729Y-10083770D02*
X19868777Y-10093293D01*
X19868777Y-10093293D02*
X19906872Y-10093293D01*
X19906872Y-10093293D02*
X19925920Y-10083770D01*
X19925920Y-10083770D02*
X19935444Y-10074246D01*
X19935444Y-10074246D02*
X19944968Y-10055198D01*
X20021158Y-9988531D02*
X20030682Y-9979008D01*
X20030682Y-9979008D02*
X20049729Y-9969484D01*
X20049729Y-9969484D02*
X20097349Y-9969484D01*
X20097349Y-9969484D02*
X20116396Y-9979008D01*
X20116396Y-9979008D02*
X20125920Y-9988531D01*
X20125920Y-9988531D02*
X20135444Y-10007579D01*
X20135444Y-10007579D02*
X20135444Y-10026627D01*
X20135444Y-10026627D02*
X20125920Y-10055198D01*
X20125920Y-10055198D02*
X20011634Y-10169484D01*
X20011634Y-10169484D02*
X20135444Y-10169484D01*
X20211634Y-9969484D02*
X20211634Y-10007579D01*
X20287825Y-9969484D02*
X20287825Y-10007579D01*
X20583063Y-10245674D02*
X20573539Y-10236150D01*
X20573539Y-10236150D02*
X20554491Y-10207579D01*
X20554491Y-10207579D02*
X20544968Y-10188531D01*
X20544968Y-10188531D02*
X20535444Y-10159960D01*
X20535444Y-10159960D02*
X20525920Y-10112341D01*
X20525920Y-10112341D02*
X20525920Y-10074246D01*
X20525920Y-10074246D02*
X20535444Y-10026627D01*
X20535444Y-10026627D02*
X20544968Y-9998055D01*
X20544968Y-9998055D02*
X20554491Y-9979008D01*
X20554491Y-9979008D02*
X20573539Y-9950436D01*
X20573539Y-9950436D02*
X20583063Y-9940912D01*
X20649730Y-9988531D02*
X20659253Y-9979008D01*
X20659253Y-9979008D02*
X20678301Y-9969484D01*
X20678301Y-9969484D02*
X20725920Y-9969484D01*
X20725920Y-9969484D02*
X20744968Y-9979008D01*
X20744968Y-9979008D02*
X20754491Y-9988531D01*
X20754491Y-9988531D02*
X20764015Y-10007579D01*
X20764015Y-10007579D02*
X20764015Y-10026627D01*
X20764015Y-10026627D02*
X20754491Y-10055198D01*
X20754491Y-10055198D02*
X20640206Y-10169484D01*
X20640206Y-10169484D02*
X20764015Y-10169484D01*
X21002111Y-10169484D02*
X21002111Y-9969484D01*
X21087825Y-10169484D02*
X21087825Y-10064722D01*
X21087825Y-10064722D02*
X21078301Y-10045674D01*
X21078301Y-10045674D02*
X21059253Y-10036150D01*
X21059253Y-10036150D02*
X21030682Y-10036150D01*
X21030682Y-10036150D02*
X21011634Y-10045674D01*
X21011634Y-10045674D02*
X21002111Y-10055198D01*
X21211634Y-10169484D02*
X21192587Y-10159960D01*
X21192587Y-10159960D02*
X21183063Y-10150436D01*
X21183063Y-10150436D02*
X21173539Y-10131389D01*
X21173539Y-10131389D02*
X21173539Y-10074246D01*
X21173539Y-10074246D02*
X21183063Y-10055198D01*
X21183063Y-10055198D02*
X21192587Y-10045674D01*
X21192587Y-10045674D02*
X21211634Y-10036150D01*
X21211634Y-10036150D02*
X21240206Y-10036150D01*
X21240206Y-10036150D02*
X21259253Y-10045674D01*
X21259253Y-10045674D02*
X21268777Y-10055198D01*
X21268777Y-10055198D02*
X21278301Y-10074246D01*
X21278301Y-10074246D02*
X21278301Y-10131389D01*
X21278301Y-10131389D02*
X21268777Y-10150436D01*
X21268777Y-10150436D02*
X21259253Y-10159960D01*
X21259253Y-10159960D02*
X21240206Y-10169484D01*
X21240206Y-10169484D02*
X21211634Y-10169484D01*
X21392587Y-10169484D02*
X21373539Y-10159960D01*
X21373539Y-10159960D02*
X21364015Y-10140912D01*
X21364015Y-10140912D02*
X21364015Y-9969484D01*
X21544968Y-10159960D02*
X21525920Y-10169484D01*
X21525920Y-10169484D02*
X21487825Y-10169484D01*
X21487825Y-10169484D02*
X21468777Y-10159960D01*
X21468777Y-10159960D02*
X21459253Y-10140912D01*
X21459253Y-10140912D02*
X21459253Y-10064722D01*
X21459253Y-10064722D02*
X21468777Y-10045674D01*
X21468777Y-10045674D02*
X21487825Y-10036150D01*
X21487825Y-10036150D02*
X21525920Y-10036150D01*
X21525920Y-10036150D02*
X21544968Y-10045674D01*
X21544968Y-10045674D02*
X21554492Y-10064722D01*
X21554492Y-10064722D02*
X21554492Y-10083770D01*
X21554492Y-10083770D02*
X21459253Y-10102817D01*
X21630682Y-10159960D02*
X21649730Y-10169484D01*
X21649730Y-10169484D02*
X21687825Y-10169484D01*
X21687825Y-10169484D02*
X21706873Y-10159960D01*
X21706873Y-10159960D02*
X21716396Y-10140912D01*
X21716396Y-10140912D02*
X21716396Y-10131389D01*
X21716396Y-10131389D02*
X21706873Y-10112341D01*
X21706873Y-10112341D02*
X21687825Y-10102817D01*
X21687825Y-10102817D02*
X21659253Y-10102817D01*
X21659253Y-10102817D02*
X21640206Y-10093293D01*
X21640206Y-10093293D02*
X21630682Y-10074246D01*
X21630682Y-10074246D02*
X21630682Y-10064722D01*
X21630682Y-10064722D02*
X21640206Y-10045674D01*
X21640206Y-10045674D02*
X21659253Y-10036150D01*
X21659253Y-10036150D02*
X21687825Y-10036150D01*
X21687825Y-10036150D02*
X21706873Y-10045674D01*
X21783063Y-10245674D02*
X21792587Y-10236150D01*
X21792587Y-10236150D02*
X21811634Y-10207579D01*
X21811634Y-10207579D02*
X21821158Y-10188531D01*
X21821158Y-10188531D02*
X21830682Y-10159960D01*
X21830682Y-10159960D02*
X21840206Y-10112341D01*
X21840206Y-10112341D02*
X21840206Y-10074246D01*
X21840206Y-10074246D02*
X21830682Y-10026627D01*
X21830682Y-10026627D02*
X21821158Y-9998055D01*
X21821158Y-9998055D02*
X21811634Y-9979008D01*
X21811634Y-9979008D02*
X21792587Y-9950436D01*
X21792587Y-9950436D02*
X21783063Y-9940912D01*
D15*
X16910500Y-10439500D02*
X17008000Y-10342000D01*
X16910500Y-10244500D01*
X16813000Y-10342000D01*
X16910500Y-10439500D01*
D10*
X17373539Y-10433484D02*
X17259253Y-10433484D01*
X17316396Y-10433484D02*
X17316396Y-10233484D01*
X17316396Y-10233484D02*
X17297348Y-10262055D01*
X17297348Y-10262055D02*
X17278301Y-10281103D01*
X17278301Y-10281103D02*
X17259253Y-10290627D01*
X17459253Y-10414436D02*
X17468777Y-10423960D01*
X17468777Y-10423960D02*
X17459253Y-10433484D01*
X17459253Y-10433484D02*
X17449729Y-10423960D01*
X17449729Y-10423960D02*
X17459253Y-10414436D01*
X17459253Y-10414436D02*
X17459253Y-10433484D01*
X17564015Y-10433484D02*
X17602110Y-10433484D01*
X17602110Y-10433484D02*
X17621158Y-10423960D01*
X17621158Y-10423960D02*
X17630682Y-10414436D01*
X17630682Y-10414436D02*
X17649729Y-10385865D01*
X17649729Y-10385865D02*
X17659253Y-10347770D01*
X17659253Y-10347770D02*
X17659253Y-10271579D01*
X17659253Y-10271579D02*
X17649729Y-10252531D01*
X17649729Y-10252531D02*
X17640205Y-10243008D01*
X17640205Y-10243008D02*
X17621158Y-10233484D01*
X17621158Y-10233484D02*
X17583063Y-10233484D01*
X17583063Y-10233484D02*
X17564015Y-10243008D01*
X17564015Y-10243008D02*
X17554491Y-10252531D01*
X17554491Y-10252531D02*
X17544967Y-10271579D01*
X17544967Y-10271579D02*
X17544967Y-10319198D01*
X17544967Y-10319198D02*
X17554491Y-10338246D01*
X17554491Y-10338246D02*
X17564015Y-10347770D01*
X17564015Y-10347770D02*
X17583063Y-10357293D01*
X17583063Y-10357293D02*
X17621158Y-10357293D01*
X17621158Y-10357293D02*
X17640205Y-10347770D01*
X17640205Y-10347770D02*
X17649729Y-10338246D01*
X17649729Y-10338246D02*
X17659253Y-10319198D01*
X17840205Y-10233484D02*
X17744967Y-10233484D01*
X17744967Y-10233484D02*
X17735444Y-10328722D01*
X17735444Y-10328722D02*
X17744967Y-10319198D01*
X17744967Y-10319198D02*
X17764015Y-10309674D01*
X17764015Y-10309674D02*
X17811634Y-10309674D01*
X17811634Y-10309674D02*
X17830682Y-10319198D01*
X17830682Y-10319198D02*
X17840205Y-10328722D01*
X17840205Y-10328722D02*
X17849729Y-10347770D01*
X17849729Y-10347770D02*
X17849729Y-10395389D01*
X17849729Y-10395389D02*
X17840205Y-10414436D01*
X17840205Y-10414436D02*
X17830682Y-10423960D01*
X17830682Y-10423960D02*
X17811634Y-10433484D01*
X17811634Y-10433484D02*
X17764015Y-10433484D01*
X17764015Y-10433484D02*
X17744967Y-10423960D01*
X17744967Y-10423960D02*
X17735444Y-10414436D01*
X17973539Y-10233484D02*
X17992586Y-10233484D01*
X17992586Y-10233484D02*
X18011634Y-10243008D01*
X18011634Y-10243008D02*
X18021158Y-10252531D01*
X18021158Y-10252531D02*
X18030682Y-10271579D01*
X18030682Y-10271579D02*
X18040205Y-10309674D01*
X18040205Y-10309674D02*
X18040205Y-10357293D01*
X18040205Y-10357293D02*
X18030682Y-10395389D01*
X18030682Y-10395389D02*
X18021158Y-10414436D01*
X18021158Y-10414436D02*
X18011634Y-10423960D01*
X18011634Y-10423960D02*
X17992586Y-10433484D01*
X17992586Y-10433484D02*
X17973539Y-10433484D01*
X17973539Y-10433484D02*
X17954491Y-10423960D01*
X17954491Y-10423960D02*
X17944967Y-10414436D01*
X17944967Y-10414436D02*
X17935444Y-10395389D01*
X17935444Y-10395389D02*
X17925920Y-10357293D01*
X17925920Y-10357293D02*
X17925920Y-10309674D01*
X17925920Y-10309674D02*
X17935444Y-10271579D01*
X17935444Y-10271579D02*
X17944967Y-10252531D01*
X17944967Y-10252531D02*
X17954491Y-10243008D01*
X17954491Y-10243008D02*
X17973539Y-10233484D01*
X18125920Y-10433484D02*
X18125920Y-10300150D01*
X18125920Y-10319198D02*
X18135444Y-10309674D01*
X18135444Y-10309674D02*
X18154491Y-10300150D01*
X18154491Y-10300150D02*
X18183063Y-10300150D01*
X18183063Y-10300150D02*
X18202110Y-10309674D01*
X18202110Y-10309674D02*
X18211634Y-10328722D01*
X18211634Y-10328722D02*
X18211634Y-10433484D01*
X18211634Y-10328722D02*
X18221158Y-10309674D01*
X18221158Y-10309674D02*
X18240205Y-10300150D01*
X18240205Y-10300150D02*
X18268777Y-10300150D01*
X18268777Y-10300150D02*
X18287825Y-10309674D01*
X18287825Y-10309674D02*
X18297348Y-10328722D01*
X18297348Y-10328722D02*
X18297348Y-10433484D01*
X18392586Y-10433484D02*
X18392586Y-10300150D01*
X18392586Y-10319198D02*
X18402110Y-10309674D01*
X18402110Y-10309674D02*
X18421158Y-10300150D01*
X18421158Y-10300150D02*
X18449729Y-10300150D01*
X18449729Y-10300150D02*
X18468777Y-10309674D01*
X18468777Y-10309674D02*
X18478301Y-10328722D01*
X18478301Y-10328722D02*
X18478301Y-10433484D01*
X18478301Y-10328722D02*
X18487825Y-10309674D01*
X18487825Y-10309674D02*
X18506872Y-10300150D01*
X18506872Y-10300150D02*
X18535444Y-10300150D01*
X18535444Y-10300150D02*
X18554491Y-10309674D01*
X18554491Y-10309674D02*
X18564015Y-10328722D01*
X18564015Y-10328722D02*
X18564015Y-10433484D01*
X18954491Y-10223960D02*
X18783063Y-10481103D01*
X19211634Y-10233484D02*
X19230682Y-10233484D01*
X19230682Y-10233484D02*
X19249729Y-10243008D01*
X19249729Y-10243008D02*
X19259253Y-10252531D01*
X19259253Y-10252531D02*
X19268777Y-10271579D01*
X19268777Y-10271579D02*
X19278301Y-10309674D01*
X19278301Y-10309674D02*
X19278301Y-10357293D01*
X19278301Y-10357293D02*
X19268777Y-10395389D01*
X19268777Y-10395389D02*
X19259253Y-10414436D01*
X19259253Y-10414436D02*
X19249729Y-10423960D01*
X19249729Y-10423960D02*
X19230682Y-10433484D01*
X19230682Y-10433484D02*
X19211634Y-10433484D01*
X19211634Y-10433484D02*
X19192587Y-10423960D01*
X19192587Y-10423960D02*
X19183063Y-10414436D01*
X19183063Y-10414436D02*
X19173539Y-10395389D01*
X19173539Y-10395389D02*
X19164015Y-10357293D01*
X19164015Y-10357293D02*
X19164015Y-10309674D01*
X19164015Y-10309674D02*
X19173539Y-10271579D01*
X19173539Y-10271579D02*
X19183063Y-10252531D01*
X19183063Y-10252531D02*
X19192587Y-10243008D01*
X19192587Y-10243008D02*
X19211634Y-10233484D01*
X19364015Y-10414436D02*
X19373539Y-10423960D01*
X19373539Y-10423960D02*
X19364015Y-10433484D01*
X19364015Y-10433484D02*
X19354491Y-10423960D01*
X19354491Y-10423960D02*
X19364015Y-10414436D01*
X19364015Y-10414436D02*
X19364015Y-10433484D01*
X19497348Y-10233484D02*
X19516396Y-10233484D01*
X19516396Y-10233484D02*
X19535444Y-10243008D01*
X19535444Y-10243008D02*
X19544968Y-10252531D01*
X19544968Y-10252531D02*
X19554491Y-10271579D01*
X19554491Y-10271579D02*
X19564015Y-10309674D01*
X19564015Y-10309674D02*
X19564015Y-10357293D01*
X19564015Y-10357293D02*
X19554491Y-10395389D01*
X19554491Y-10395389D02*
X19544968Y-10414436D01*
X19544968Y-10414436D02*
X19535444Y-10423960D01*
X19535444Y-10423960D02*
X19516396Y-10433484D01*
X19516396Y-10433484D02*
X19497348Y-10433484D01*
X19497348Y-10433484D02*
X19478301Y-10423960D01*
X19478301Y-10423960D02*
X19468777Y-10414436D01*
X19468777Y-10414436D02*
X19459253Y-10395389D01*
X19459253Y-10395389D02*
X19449729Y-10357293D01*
X19449729Y-10357293D02*
X19449729Y-10309674D01*
X19449729Y-10309674D02*
X19459253Y-10271579D01*
X19459253Y-10271579D02*
X19468777Y-10252531D01*
X19468777Y-10252531D02*
X19478301Y-10243008D01*
X19478301Y-10243008D02*
X19497348Y-10233484D01*
X19630682Y-10233484D02*
X19764015Y-10233484D01*
X19764015Y-10233484D02*
X19678301Y-10433484D01*
X19925920Y-10233484D02*
X19887825Y-10233484D01*
X19887825Y-10233484D02*
X19868777Y-10243008D01*
X19868777Y-10243008D02*
X19859253Y-10252531D01*
X19859253Y-10252531D02*
X19840206Y-10281103D01*
X19840206Y-10281103D02*
X19830682Y-10319198D01*
X19830682Y-10319198D02*
X19830682Y-10395389D01*
X19830682Y-10395389D02*
X19840206Y-10414436D01*
X19840206Y-10414436D02*
X19849729Y-10423960D01*
X19849729Y-10423960D02*
X19868777Y-10433484D01*
X19868777Y-10433484D02*
X19906872Y-10433484D01*
X19906872Y-10433484D02*
X19925920Y-10423960D01*
X19925920Y-10423960D02*
X19935444Y-10414436D01*
X19935444Y-10414436D02*
X19944968Y-10395389D01*
X19944968Y-10395389D02*
X19944968Y-10347770D01*
X19944968Y-10347770D02*
X19935444Y-10328722D01*
X19935444Y-10328722D02*
X19925920Y-10319198D01*
X19925920Y-10319198D02*
X19906872Y-10309674D01*
X19906872Y-10309674D02*
X19868777Y-10309674D01*
X19868777Y-10309674D02*
X19849729Y-10319198D01*
X19849729Y-10319198D02*
X19840206Y-10328722D01*
X19840206Y-10328722D02*
X19830682Y-10347770D01*
X20059253Y-10319198D02*
X20040206Y-10309674D01*
X20040206Y-10309674D02*
X20030682Y-10300150D01*
X20030682Y-10300150D02*
X20021158Y-10281103D01*
X20021158Y-10281103D02*
X20021158Y-10271579D01*
X20021158Y-10271579D02*
X20030682Y-10252531D01*
X20030682Y-10252531D02*
X20040206Y-10243008D01*
X20040206Y-10243008D02*
X20059253Y-10233484D01*
X20059253Y-10233484D02*
X20097349Y-10233484D01*
X20097349Y-10233484D02*
X20116396Y-10243008D01*
X20116396Y-10243008D02*
X20125920Y-10252531D01*
X20125920Y-10252531D02*
X20135444Y-10271579D01*
X20135444Y-10271579D02*
X20135444Y-10281103D01*
X20135444Y-10281103D02*
X20125920Y-10300150D01*
X20125920Y-10300150D02*
X20116396Y-10309674D01*
X20116396Y-10309674D02*
X20097349Y-10319198D01*
X20097349Y-10319198D02*
X20059253Y-10319198D01*
X20059253Y-10319198D02*
X20040206Y-10328722D01*
X20040206Y-10328722D02*
X20030682Y-10338246D01*
X20030682Y-10338246D02*
X20021158Y-10357293D01*
X20021158Y-10357293D02*
X20021158Y-10395389D01*
X20021158Y-10395389D02*
X20030682Y-10414436D01*
X20030682Y-10414436D02*
X20040206Y-10423960D01*
X20040206Y-10423960D02*
X20059253Y-10433484D01*
X20059253Y-10433484D02*
X20097349Y-10433484D01*
X20097349Y-10433484D02*
X20116396Y-10423960D01*
X20116396Y-10423960D02*
X20125920Y-10414436D01*
X20125920Y-10414436D02*
X20135444Y-10395389D01*
X20135444Y-10395389D02*
X20135444Y-10357293D01*
X20135444Y-10357293D02*
X20125920Y-10338246D01*
X20125920Y-10338246D02*
X20116396Y-10328722D01*
X20116396Y-10328722D02*
X20097349Y-10319198D01*
X20211634Y-10233484D02*
X20211634Y-10271579D01*
X20287825Y-10233484D02*
X20287825Y-10271579D01*
X20583063Y-10509674D02*
X20573539Y-10500150D01*
X20573539Y-10500150D02*
X20554491Y-10471579D01*
X20554491Y-10471579D02*
X20544968Y-10452531D01*
X20544968Y-10452531D02*
X20535444Y-10423960D01*
X20535444Y-10423960D02*
X20525920Y-10376341D01*
X20525920Y-10376341D02*
X20525920Y-10338246D01*
X20525920Y-10338246D02*
X20535444Y-10290627D01*
X20535444Y-10290627D02*
X20544968Y-10262055D01*
X20544968Y-10262055D02*
X20554491Y-10243008D01*
X20554491Y-10243008D02*
X20573539Y-10214436D01*
X20573539Y-10214436D02*
X20583063Y-10204912D01*
X20649730Y-10252531D02*
X20659253Y-10243008D01*
X20659253Y-10243008D02*
X20678301Y-10233484D01*
X20678301Y-10233484D02*
X20725920Y-10233484D01*
X20725920Y-10233484D02*
X20744968Y-10243008D01*
X20744968Y-10243008D02*
X20754491Y-10252531D01*
X20754491Y-10252531D02*
X20764015Y-10271579D01*
X20764015Y-10271579D02*
X20764015Y-10290627D01*
X20764015Y-10290627D02*
X20754491Y-10319198D01*
X20754491Y-10319198D02*
X20640206Y-10433484D01*
X20640206Y-10433484D02*
X20764015Y-10433484D01*
X21002111Y-10433484D02*
X21002111Y-10233484D01*
X21087825Y-10433484D02*
X21087825Y-10328722D01*
X21087825Y-10328722D02*
X21078301Y-10309674D01*
X21078301Y-10309674D02*
X21059253Y-10300150D01*
X21059253Y-10300150D02*
X21030682Y-10300150D01*
X21030682Y-10300150D02*
X21011634Y-10309674D01*
X21011634Y-10309674D02*
X21002111Y-10319198D01*
X21211634Y-10433484D02*
X21192587Y-10423960D01*
X21192587Y-10423960D02*
X21183063Y-10414436D01*
X21183063Y-10414436D02*
X21173539Y-10395389D01*
X21173539Y-10395389D02*
X21173539Y-10338246D01*
X21173539Y-10338246D02*
X21183063Y-10319198D01*
X21183063Y-10319198D02*
X21192587Y-10309674D01*
X21192587Y-10309674D02*
X21211634Y-10300150D01*
X21211634Y-10300150D02*
X21240206Y-10300150D01*
X21240206Y-10300150D02*
X21259253Y-10309674D01*
X21259253Y-10309674D02*
X21268777Y-10319198D01*
X21268777Y-10319198D02*
X21278301Y-10338246D01*
X21278301Y-10338246D02*
X21278301Y-10395389D01*
X21278301Y-10395389D02*
X21268777Y-10414436D01*
X21268777Y-10414436D02*
X21259253Y-10423960D01*
X21259253Y-10423960D02*
X21240206Y-10433484D01*
X21240206Y-10433484D02*
X21211634Y-10433484D01*
X21392587Y-10433484D02*
X21373539Y-10423960D01*
X21373539Y-10423960D02*
X21364015Y-10404912D01*
X21364015Y-10404912D02*
X21364015Y-10233484D01*
X21544968Y-10423960D02*
X21525920Y-10433484D01*
X21525920Y-10433484D02*
X21487825Y-10433484D01*
X21487825Y-10433484D02*
X21468777Y-10423960D01*
X21468777Y-10423960D02*
X21459253Y-10404912D01*
X21459253Y-10404912D02*
X21459253Y-10328722D01*
X21459253Y-10328722D02*
X21468777Y-10309674D01*
X21468777Y-10309674D02*
X21487825Y-10300150D01*
X21487825Y-10300150D02*
X21525920Y-10300150D01*
X21525920Y-10300150D02*
X21544968Y-10309674D01*
X21544968Y-10309674D02*
X21554492Y-10328722D01*
X21554492Y-10328722D02*
X21554492Y-10347770D01*
X21554492Y-10347770D02*
X21459253Y-10366817D01*
X21630682Y-10423960D02*
X21649730Y-10433484D01*
X21649730Y-10433484D02*
X21687825Y-10433484D01*
X21687825Y-10433484D02*
X21706873Y-10423960D01*
X21706873Y-10423960D02*
X21716396Y-10404912D01*
X21716396Y-10404912D02*
X21716396Y-10395389D01*
X21716396Y-10395389D02*
X21706873Y-10376341D01*
X21706873Y-10376341D02*
X21687825Y-10366817D01*
X21687825Y-10366817D02*
X21659253Y-10366817D01*
X21659253Y-10366817D02*
X21640206Y-10357293D01*
X21640206Y-10357293D02*
X21630682Y-10338246D01*
X21630682Y-10338246D02*
X21630682Y-10328722D01*
X21630682Y-10328722D02*
X21640206Y-10309674D01*
X21640206Y-10309674D02*
X21659253Y-10300150D01*
X21659253Y-10300150D02*
X21687825Y-10300150D01*
X21687825Y-10300150D02*
X21706873Y-10309674D01*
X21783063Y-10509674D02*
X21792587Y-10500150D01*
X21792587Y-10500150D02*
X21811634Y-10471579D01*
X21811634Y-10471579D02*
X21821158Y-10452531D01*
X21821158Y-10452531D02*
X21830682Y-10423960D01*
X21830682Y-10423960D02*
X21840206Y-10376341D01*
X21840206Y-10376341D02*
X21840206Y-10338246D01*
X21840206Y-10338246D02*
X21830682Y-10290627D01*
X21830682Y-10290627D02*
X21821158Y-10262055D01*
X21821158Y-10262055D02*
X21811634Y-10243008D01*
X21811634Y-10243008D02*
X21792587Y-10214436D01*
X21792587Y-10214436D02*
X21783063Y-10204912D01*
X16808000Y-10557000D02*
X17008000Y-10757000D01*
X17008000Y-10557000D02*
X16808000Y-10757000D01*
X17008000Y-10657000D02*
G75*
G03*
X17008000Y-10657000I-100000J0D01*
G01*
X17259253Y-10567531D02*
X17268777Y-10558008D01*
X17268777Y-10558008D02*
X17287824Y-10548484D01*
X17287824Y-10548484D02*
X17335444Y-10548484D01*
X17335444Y-10548484D02*
X17354491Y-10558008D01*
X17354491Y-10558008D02*
X17364015Y-10567531D01*
X17364015Y-10567531D02*
X17373539Y-10586579D01*
X17373539Y-10586579D02*
X17373539Y-10605627D01*
X17373539Y-10605627D02*
X17364015Y-10634198D01*
X17364015Y-10634198D02*
X17249729Y-10748484D01*
X17249729Y-10748484D02*
X17373539Y-10748484D01*
X17459253Y-10729436D02*
X17468777Y-10738960D01*
X17468777Y-10738960D02*
X17459253Y-10748484D01*
X17459253Y-10748484D02*
X17449729Y-10738960D01*
X17449729Y-10738960D02*
X17459253Y-10729436D01*
X17459253Y-10729436D02*
X17459253Y-10748484D01*
X17544967Y-10567531D02*
X17554491Y-10558008D01*
X17554491Y-10558008D02*
X17573539Y-10548484D01*
X17573539Y-10548484D02*
X17621158Y-10548484D01*
X17621158Y-10548484D02*
X17640205Y-10558008D01*
X17640205Y-10558008D02*
X17649729Y-10567531D01*
X17649729Y-10567531D02*
X17659253Y-10586579D01*
X17659253Y-10586579D02*
X17659253Y-10605627D01*
X17659253Y-10605627D02*
X17649729Y-10634198D01*
X17649729Y-10634198D02*
X17535444Y-10748484D01*
X17535444Y-10748484D02*
X17659253Y-10748484D01*
X17783063Y-10548484D02*
X17802110Y-10548484D01*
X17802110Y-10548484D02*
X17821158Y-10558008D01*
X17821158Y-10558008D02*
X17830682Y-10567531D01*
X17830682Y-10567531D02*
X17840205Y-10586579D01*
X17840205Y-10586579D02*
X17849729Y-10624674D01*
X17849729Y-10624674D02*
X17849729Y-10672293D01*
X17849729Y-10672293D02*
X17840205Y-10710389D01*
X17840205Y-10710389D02*
X17830682Y-10729436D01*
X17830682Y-10729436D02*
X17821158Y-10738960D01*
X17821158Y-10738960D02*
X17802110Y-10748484D01*
X17802110Y-10748484D02*
X17783063Y-10748484D01*
X17783063Y-10748484D02*
X17764015Y-10738960D01*
X17764015Y-10738960D02*
X17754491Y-10729436D01*
X17754491Y-10729436D02*
X17744967Y-10710389D01*
X17744967Y-10710389D02*
X17735444Y-10672293D01*
X17735444Y-10672293D02*
X17735444Y-10624674D01*
X17735444Y-10624674D02*
X17744967Y-10586579D01*
X17744967Y-10586579D02*
X17754491Y-10567531D01*
X17754491Y-10567531D02*
X17764015Y-10558008D01*
X17764015Y-10558008D02*
X17783063Y-10548484D01*
X17973539Y-10548484D02*
X17992586Y-10548484D01*
X17992586Y-10548484D02*
X18011634Y-10558008D01*
X18011634Y-10558008D02*
X18021158Y-10567531D01*
X18021158Y-10567531D02*
X18030682Y-10586579D01*
X18030682Y-10586579D02*
X18040205Y-10624674D01*
X18040205Y-10624674D02*
X18040205Y-10672293D01*
X18040205Y-10672293D02*
X18030682Y-10710389D01*
X18030682Y-10710389D02*
X18021158Y-10729436D01*
X18021158Y-10729436D02*
X18011634Y-10738960D01*
X18011634Y-10738960D02*
X17992586Y-10748484D01*
X17992586Y-10748484D02*
X17973539Y-10748484D01*
X17973539Y-10748484D02*
X17954491Y-10738960D01*
X17954491Y-10738960D02*
X17944967Y-10729436D01*
X17944967Y-10729436D02*
X17935444Y-10710389D01*
X17935444Y-10710389D02*
X17925920Y-10672293D01*
X17925920Y-10672293D02*
X17925920Y-10624674D01*
X17925920Y-10624674D02*
X17935444Y-10586579D01*
X17935444Y-10586579D02*
X17944967Y-10567531D01*
X17944967Y-10567531D02*
X17954491Y-10558008D01*
X17954491Y-10558008D02*
X17973539Y-10548484D01*
X18125920Y-10748484D02*
X18125920Y-10615150D01*
X18125920Y-10634198D02*
X18135444Y-10624674D01*
X18135444Y-10624674D02*
X18154491Y-10615150D01*
X18154491Y-10615150D02*
X18183063Y-10615150D01*
X18183063Y-10615150D02*
X18202110Y-10624674D01*
X18202110Y-10624674D02*
X18211634Y-10643722D01*
X18211634Y-10643722D02*
X18211634Y-10748484D01*
X18211634Y-10643722D02*
X18221158Y-10624674D01*
X18221158Y-10624674D02*
X18240205Y-10615150D01*
X18240205Y-10615150D02*
X18268777Y-10615150D01*
X18268777Y-10615150D02*
X18287825Y-10624674D01*
X18287825Y-10624674D02*
X18297348Y-10643722D01*
X18297348Y-10643722D02*
X18297348Y-10748484D01*
X18392586Y-10748484D02*
X18392586Y-10615150D01*
X18392586Y-10634198D02*
X18402110Y-10624674D01*
X18402110Y-10624674D02*
X18421158Y-10615150D01*
X18421158Y-10615150D02*
X18449729Y-10615150D01*
X18449729Y-10615150D02*
X18468777Y-10624674D01*
X18468777Y-10624674D02*
X18478301Y-10643722D01*
X18478301Y-10643722D02*
X18478301Y-10748484D01*
X18478301Y-10643722D02*
X18487825Y-10624674D01*
X18487825Y-10624674D02*
X18506872Y-10615150D01*
X18506872Y-10615150D02*
X18535444Y-10615150D01*
X18535444Y-10615150D02*
X18554491Y-10624674D01*
X18554491Y-10624674D02*
X18564015Y-10643722D01*
X18564015Y-10643722D02*
X18564015Y-10748484D01*
X18954491Y-10538960D02*
X18783063Y-10796103D01*
X19211634Y-10548484D02*
X19230682Y-10548484D01*
X19230682Y-10548484D02*
X19249729Y-10558008D01*
X19249729Y-10558008D02*
X19259253Y-10567531D01*
X19259253Y-10567531D02*
X19268777Y-10586579D01*
X19268777Y-10586579D02*
X19278301Y-10624674D01*
X19278301Y-10624674D02*
X19278301Y-10672293D01*
X19278301Y-10672293D02*
X19268777Y-10710389D01*
X19268777Y-10710389D02*
X19259253Y-10729436D01*
X19259253Y-10729436D02*
X19249729Y-10738960D01*
X19249729Y-10738960D02*
X19230682Y-10748484D01*
X19230682Y-10748484D02*
X19211634Y-10748484D01*
X19211634Y-10748484D02*
X19192587Y-10738960D01*
X19192587Y-10738960D02*
X19183063Y-10729436D01*
X19183063Y-10729436D02*
X19173539Y-10710389D01*
X19173539Y-10710389D02*
X19164015Y-10672293D01*
X19164015Y-10672293D02*
X19164015Y-10624674D01*
X19164015Y-10624674D02*
X19173539Y-10586579D01*
X19173539Y-10586579D02*
X19183063Y-10567531D01*
X19183063Y-10567531D02*
X19192587Y-10558008D01*
X19192587Y-10558008D02*
X19211634Y-10548484D01*
X19364015Y-10729436D02*
X19373539Y-10738960D01*
X19373539Y-10738960D02*
X19364015Y-10748484D01*
X19364015Y-10748484D02*
X19354491Y-10738960D01*
X19354491Y-10738960D02*
X19364015Y-10729436D01*
X19364015Y-10729436D02*
X19364015Y-10748484D01*
X19497348Y-10548484D02*
X19516396Y-10548484D01*
X19516396Y-10548484D02*
X19535444Y-10558008D01*
X19535444Y-10558008D02*
X19544968Y-10567531D01*
X19544968Y-10567531D02*
X19554491Y-10586579D01*
X19554491Y-10586579D02*
X19564015Y-10624674D01*
X19564015Y-10624674D02*
X19564015Y-10672293D01*
X19564015Y-10672293D02*
X19554491Y-10710389D01*
X19554491Y-10710389D02*
X19544968Y-10729436D01*
X19544968Y-10729436D02*
X19535444Y-10738960D01*
X19535444Y-10738960D02*
X19516396Y-10748484D01*
X19516396Y-10748484D02*
X19497348Y-10748484D01*
X19497348Y-10748484D02*
X19478301Y-10738960D01*
X19478301Y-10738960D02*
X19468777Y-10729436D01*
X19468777Y-10729436D02*
X19459253Y-10710389D01*
X19459253Y-10710389D02*
X19449729Y-10672293D01*
X19449729Y-10672293D02*
X19449729Y-10624674D01*
X19449729Y-10624674D02*
X19459253Y-10586579D01*
X19459253Y-10586579D02*
X19468777Y-10567531D01*
X19468777Y-10567531D02*
X19478301Y-10558008D01*
X19478301Y-10558008D02*
X19497348Y-10548484D01*
X19678301Y-10634198D02*
X19659253Y-10624674D01*
X19659253Y-10624674D02*
X19649729Y-10615150D01*
X19649729Y-10615150D02*
X19640206Y-10596103D01*
X19640206Y-10596103D02*
X19640206Y-10586579D01*
X19640206Y-10586579D02*
X19649729Y-10567531D01*
X19649729Y-10567531D02*
X19659253Y-10558008D01*
X19659253Y-10558008D02*
X19678301Y-10548484D01*
X19678301Y-10548484D02*
X19716396Y-10548484D01*
X19716396Y-10548484D02*
X19735444Y-10558008D01*
X19735444Y-10558008D02*
X19744968Y-10567531D01*
X19744968Y-10567531D02*
X19754491Y-10586579D01*
X19754491Y-10586579D02*
X19754491Y-10596103D01*
X19754491Y-10596103D02*
X19744968Y-10615150D01*
X19744968Y-10615150D02*
X19735444Y-10624674D01*
X19735444Y-10624674D02*
X19716396Y-10634198D01*
X19716396Y-10634198D02*
X19678301Y-10634198D01*
X19678301Y-10634198D02*
X19659253Y-10643722D01*
X19659253Y-10643722D02*
X19649729Y-10653246D01*
X19649729Y-10653246D02*
X19640206Y-10672293D01*
X19640206Y-10672293D02*
X19640206Y-10710389D01*
X19640206Y-10710389D02*
X19649729Y-10729436D01*
X19649729Y-10729436D02*
X19659253Y-10738960D01*
X19659253Y-10738960D02*
X19678301Y-10748484D01*
X19678301Y-10748484D02*
X19716396Y-10748484D01*
X19716396Y-10748484D02*
X19735444Y-10738960D01*
X19735444Y-10738960D02*
X19744968Y-10729436D01*
X19744968Y-10729436D02*
X19754491Y-10710389D01*
X19754491Y-10710389D02*
X19754491Y-10672293D01*
X19754491Y-10672293D02*
X19744968Y-10653246D01*
X19744968Y-10653246D02*
X19735444Y-10643722D01*
X19735444Y-10643722D02*
X19716396Y-10634198D01*
X19925920Y-10548484D02*
X19887825Y-10548484D01*
X19887825Y-10548484D02*
X19868777Y-10558008D01*
X19868777Y-10558008D02*
X19859253Y-10567531D01*
X19859253Y-10567531D02*
X19840206Y-10596103D01*
X19840206Y-10596103D02*
X19830682Y-10634198D01*
X19830682Y-10634198D02*
X19830682Y-10710389D01*
X19830682Y-10710389D02*
X19840206Y-10729436D01*
X19840206Y-10729436D02*
X19849729Y-10738960D01*
X19849729Y-10738960D02*
X19868777Y-10748484D01*
X19868777Y-10748484D02*
X19906872Y-10748484D01*
X19906872Y-10748484D02*
X19925920Y-10738960D01*
X19925920Y-10738960D02*
X19935444Y-10729436D01*
X19935444Y-10729436D02*
X19944968Y-10710389D01*
X19944968Y-10710389D02*
X19944968Y-10662770D01*
X19944968Y-10662770D02*
X19935444Y-10643722D01*
X19935444Y-10643722D02*
X19925920Y-10634198D01*
X19925920Y-10634198D02*
X19906872Y-10624674D01*
X19906872Y-10624674D02*
X19868777Y-10624674D01*
X19868777Y-10624674D02*
X19849729Y-10634198D01*
X19849729Y-10634198D02*
X19840206Y-10643722D01*
X19840206Y-10643722D02*
X19830682Y-10662770D01*
X20116396Y-10548484D02*
X20078301Y-10548484D01*
X20078301Y-10548484D02*
X20059253Y-10558008D01*
X20059253Y-10558008D02*
X20049729Y-10567531D01*
X20049729Y-10567531D02*
X20030682Y-10596103D01*
X20030682Y-10596103D02*
X20021158Y-10634198D01*
X20021158Y-10634198D02*
X20021158Y-10710389D01*
X20021158Y-10710389D02*
X20030682Y-10729436D01*
X20030682Y-10729436D02*
X20040206Y-10738960D01*
X20040206Y-10738960D02*
X20059253Y-10748484D01*
X20059253Y-10748484D02*
X20097349Y-10748484D01*
X20097349Y-10748484D02*
X20116396Y-10738960D01*
X20116396Y-10738960D02*
X20125920Y-10729436D01*
X20125920Y-10729436D02*
X20135444Y-10710389D01*
X20135444Y-10710389D02*
X20135444Y-10662770D01*
X20135444Y-10662770D02*
X20125920Y-10643722D01*
X20125920Y-10643722D02*
X20116396Y-10634198D01*
X20116396Y-10634198D02*
X20097349Y-10624674D01*
X20097349Y-10624674D02*
X20059253Y-10624674D01*
X20059253Y-10624674D02*
X20040206Y-10634198D01*
X20040206Y-10634198D02*
X20030682Y-10643722D01*
X20030682Y-10643722D02*
X20021158Y-10662770D01*
X20211634Y-10548484D02*
X20211634Y-10586579D01*
X20287825Y-10548484D02*
X20287825Y-10586579D01*
X20583063Y-10824674D02*
X20573539Y-10815150D01*
X20573539Y-10815150D02*
X20554491Y-10786579D01*
X20554491Y-10786579D02*
X20544968Y-10767531D01*
X20544968Y-10767531D02*
X20535444Y-10738960D01*
X20535444Y-10738960D02*
X20525920Y-10691341D01*
X20525920Y-10691341D02*
X20525920Y-10653246D01*
X20525920Y-10653246D02*
X20535444Y-10605627D01*
X20535444Y-10605627D02*
X20544968Y-10577055D01*
X20544968Y-10577055D02*
X20554491Y-10558008D01*
X20554491Y-10558008D02*
X20573539Y-10529436D01*
X20573539Y-10529436D02*
X20583063Y-10519912D01*
X20744968Y-10615150D02*
X20744968Y-10748484D01*
X20697349Y-10538960D02*
X20649730Y-10681817D01*
X20649730Y-10681817D02*
X20773539Y-10681817D01*
X21002111Y-10748484D02*
X21002111Y-10548484D01*
X21087825Y-10748484D02*
X21087825Y-10643722D01*
X21087825Y-10643722D02*
X21078301Y-10624674D01*
X21078301Y-10624674D02*
X21059253Y-10615150D01*
X21059253Y-10615150D02*
X21030682Y-10615150D01*
X21030682Y-10615150D02*
X21011634Y-10624674D01*
X21011634Y-10624674D02*
X21002111Y-10634198D01*
X21211634Y-10748484D02*
X21192587Y-10738960D01*
X21192587Y-10738960D02*
X21183063Y-10729436D01*
X21183063Y-10729436D02*
X21173539Y-10710389D01*
X21173539Y-10710389D02*
X21173539Y-10653246D01*
X21173539Y-10653246D02*
X21183063Y-10634198D01*
X21183063Y-10634198D02*
X21192587Y-10624674D01*
X21192587Y-10624674D02*
X21211634Y-10615150D01*
X21211634Y-10615150D02*
X21240206Y-10615150D01*
X21240206Y-10615150D02*
X21259253Y-10624674D01*
X21259253Y-10624674D02*
X21268777Y-10634198D01*
X21268777Y-10634198D02*
X21278301Y-10653246D01*
X21278301Y-10653246D02*
X21278301Y-10710389D01*
X21278301Y-10710389D02*
X21268777Y-10729436D01*
X21268777Y-10729436D02*
X21259253Y-10738960D01*
X21259253Y-10738960D02*
X21240206Y-10748484D01*
X21240206Y-10748484D02*
X21211634Y-10748484D01*
X21392587Y-10748484D02*
X21373539Y-10738960D01*
X21373539Y-10738960D02*
X21364015Y-10719912D01*
X21364015Y-10719912D02*
X21364015Y-10548484D01*
X21544968Y-10738960D02*
X21525920Y-10748484D01*
X21525920Y-10748484D02*
X21487825Y-10748484D01*
X21487825Y-10748484D02*
X21468777Y-10738960D01*
X21468777Y-10738960D02*
X21459253Y-10719912D01*
X21459253Y-10719912D02*
X21459253Y-10643722D01*
X21459253Y-10643722D02*
X21468777Y-10624674D01*
X21468777Y-10624674D02*
X21487825Y-10615150D01*
X21487825Y-10615150D02*
X21525920Y-10615150D01*
X21525920Y-10615150D02*
X21544968Y-10624674D01*
X21544968Y-10624674D02*
X21554492Y-10643722D01*
X21554492Y-10643722D02*
X21554492Y-10662770D01*
X21554492Y-10662770D02*
X21459253Y-10681817D01*
X21630682Y-10738960D02*
X21649730Y-10748484D01*
X21649730Y-10748484D02*
X21687825Y-10748484D01*
X21687825Y-10748484D02*
X21706873Y-10738960D01*
X21706873Y-10738960D02*
X21716396Y-10719912D01*
X21716396Y-10719912D02*
X21716396Y-10710389D01*
X21716396Y-10710389D02*
X21706873Y-10691341D01*
X21706873Y-10691341D02*
X21687825Y-10681817D01*
X21687825Y-10681817D02*
X21659253Y-10681817D01*
X21659253Y-10681817D02*
X21640206Y-10672293D01*
X21640206Y-10672293D02*
X21630682Y-10653246D01*
X21630682Y-10653246D02*
X21630682Y-10643722D01*
X21630682Y-10643722D02*
X21640206Y-10624674D01*
X21640206Y-10624674D02*
X21659253Y-10615150D01*
X21659253Y-10615150D02*
X21687825Y-10615150D01*
X21687825Y-10615150D02*
X21706873Y-10624674D01*
X21783063Y-10824674D02*
X21792587Y-10815150D01*
X21792587Y-10815150D02*
X21811634Y-10786579D01*
X21811634Y-10786579D02*
X21821158Y-10767531D01*
X21821158Y-10767531D02*
X21830682Y-10738960D01*
X21830682Y-10738960D02*
X21840206Y-10691341D01*
X21840206Y-10691341D02*
X21840206Y-10653246D01*
X21840206Y-10653246D02*
X21830682Y-10605627D01*
X21830682Y-10605627D02*
X21821158Y-10577055D01*
X21821158Y-10577055D02*
X21811634Y-10558008D01*
X21811634Y-10558008D02*
X21792587Y-10529436D01*
X21792587Y-10529436D02*
X21783063Y-10519912D01*
M02*
