%TF.GenerationSoftware,KiCad,Pcbnew,7.0.6-0*%
%TF.CreationDate,2024-01-30T23:56:51-05:00*%
%TF.ProjectId,Peripherals Board (new),50657269-7068-4657-9261-6c7320426f61,rev?*%
%TF.SameCoordinates,Original*%
%TF.FileFunction,Copper,L1,Top*%
%TF.FilePolarity,Positive*%
%FSLAX46Y46*%
G04 Gerber Fmt 4.6, Leading zero omitted, Abs format (unit mm)*
G04 Created by KiCad (PCBNEW 7.0.6-0) date 2024-01-30 23:56:51*
%MOMM*%
%LPD*%
G01*
G04 APERTURE LIST*
G04 Aperture macros list*
%AMRoundRect*
0 Rectangle with rounded corners*
0 $1 Rounding radius*
0 $2 $3 $4 $5 $6 $7 $8 $9 X,Y pos of 4 corners*
0 Add a 4 corners polygon primitive as box body*
4,1,4,$2,$3,$4,$5,$6,$7,$8,$9,$2,$3,0*
0 Add four circle primitives for the rounded corners*
1,1,$1+$1,$2,$3*
1,1,$1+$1,$4,$5*
1,1,$1+$1,$6,$7*
1,1,$1+$1,$8,$9*
0 Add four rect primitives between the rounded corners*
20,1,$1+$1,$2,$3,$4,$5,0*
20,1,$1+$1,$4,$5,$6,$7,0*
20,1,$1+$1,$6,$7,$8,$9,0*
20,1,$1+$1,$8,$9,$2,$3,0*%
G04 Aperture macros list end*
%TA.AperFunction,SMDPad,CuDef*%
%ADD10RoundRect,0.250000X-0.475000X0.250000X-0.475000X-0.250000X0.475000X-0.250000X0.475000X0.250000X0*%
%TD*%
%TA.AperFunction,SMDPad,CuDef*%
%ADD11RoundRect,0.150000X-0.150000X-0.700000X0.150000X-0.700000X0.150000X0.700000X-0.150000X0.700000X0*%
%TD*%
%TA.AperFunction,SMDPad,CuDef*%
%ADD12RoundRect,0.250000X-0.250000X-1.150000X0.250000X-1.150000X0.250000X1.150000X-0.250000X1.150000X0*%
%TD*%
%TA.AperFunction,ComponentPad*%
%ADD13C,1.600000*%
%TD*%
%TA.AperFunction,SMDPad,CuDef*%
%ADD14RoundRect,0.250000X0.250000X0.475000X-0.250000X0.475000X-0.250000X-0.475000X0.250000X-0.475000X0*%
%TD*%
%TA.AperFunction,SMDPad,CuDef*%
%ADD15RoundRect,0.150000X0.150000X-0.825000X0.150000X0.825000X-0.150000X0.825000X-0.150000X-0.825000X0*%
%TD*%
%TA.AperFunction,SMDPad,CuDef*%
%ADD16RoundRect,0.250000X-0.250000X-0.475000X0.250000X-0.475000X0.250000X0.475000X-0.250000X0.475000X0*%
%TD*%
%TA.AperFunction,ComponentPad*%
%ADD17R,1.700000X1.700000*%
%TD*%
%TA.AperFunction,ComponentPad*%
%ADD18O,1.700000X1.700000*%
%TD*%
%TA.AperFunction,ComponentPad*%
%ADD19C,4.400000*%
%TD*%
%TA.AperFunction,ComponentPad*%
%ADD20C,3.000000*%
%TD*%
%TA.AperFunction,ComponentPad*%
%ADD21C,1.950000*%
%TD*%
%TA.AperFunction,SMDPad,CuDef*%
%ADD22RoundRect,0.150000X0.150000X0.700000X-0.150000X0.700000X-0.150000X-0.700000X0.150000X-0.700000X0*%
%TD*%
%TA.AperFunction,SMDPad,CuDef*%
%ADD23RoundRect,0.250000X0.250000X1.150000X-0.250000X1.150000X-0.250000X-1.150000X0.250000X-1.150000X0*%
%TD*%
%TA.AperFunction,SMDPad,CuDef*%
%ADD24RoundRect,0.150000X0.825000X0.150000X-0.825000X0.150000X-0.825000X-0.150000X0.825000X-0.150000X0*%
%TD*%
%TA.AperFunction,ViaPad*%
%ADD25C,0.800000*%
%TD*%
%TA.AperFunction,Conductor*%
%ADD26C,0.250000*%
%TD*%
%TA.AperFunction,Conductor*%
%ADD27C,0.400000*%
%TD*%
%TA.AperFunction,Conductor*%
%ADD28C,0.600000*%
%TD*%
%TA.AperFunction,Conductor*%
%ADD29C,1.000000*%
%TD*%
%TA.AperFunction,Conductor*%
%ADD30C,0.500000*%
%TD*%
G04 APERTURE END LIST*
D10*
%TO.P,C3,1*%
%TO.N,+5V*%
X189992000Y-73472000D03*
%TO.P,C3,2*%
%TO.N,GND*%
X189992000Y-75372000D03*
%TD*%
D11*
%TO.P,J1,1,Pin_1*%
%TO.N,Net-(J1-Pin_1)*%
X178295000Y-71464087D03*
%TO.P,J1,2,Pin_2*%
%TO.N,Net-(J1-Pin_2)*%
X179545000Y-71464087D03*
D12*
%TO.P,J1,MP*%
%TO.N,N/C*%
X176445000Y-68114087D03*
X181395000Y-68114087D03*
%TD*%
D13*
%TO.P,U1,44,33_MCLK2*%
%TO.N,unconnected-(U1-33_MCLK2-Pad44)*%
X198755000Y-72390000D03*
%TO.P,U1,43,32_OUT1B*%
%TO.N,unconnected-(U1-32_OUT1B-Pad43)*%
X198755000Y-74930000D03*
%TO.P,U1,42,31_CTX3*%
%TO.N,unconnected-(U1-31_CTX3-Pad42)*%
X201295000Y-72390000D03*
%TO.P,U1,41,30_CRX3*%
%TO.N,unconnected-(U1-30_CRX3-Pad41)*%
X201295000Y-74930000D03*
%TO.P,U1,40,29_TX7*%
%TO.N,unconnected-(U1-29_TX7-Pad40)*%
X203835000Y-72390000D03*
%TO.P,U1,39,28_RX7*%
%TO.N,unconnected-(U1-28_RX7-Pad39)*%
X203835000Y-74930000D03*
%TO.P,U1,38,27_A13_SCK1*%
%TO.N,unconnected-(U1-27_A13_SCK1-Pad38)*%
X206375000Y-72390000D03*
%TO.P,U1,37,26_A12_MOSI1*%
%TO.N,unconnected-(U1-26_A12_MOSI1-Pad37)*%
X206375000Y-74930000D03*
%TO.P,U1,36,25_A11_RX6_SDA2*%
%TO.N,unconnected-(U1-25_A11_RX6_SDA2-Pad36)*%
X208915000Y-72390000D03*
%TO.P,U1,35,24_A10_TX6_SCL2*%
%TO.N,unconnected-(U1-24_A10_TX6_SCL2-Pad35)*%
X208915000Y-74930000D03*
%TO.P,U1,34,VUSB*%
%TO.N,unconnected-(U1-VUSB-Pad34)*%
X208915000Y-49530000D03*
%TO.P,U1,33,VIN*%
%TO.N,+5V*%
X211455000Y-46990000D03*
%TO.P,U1,32,GND*%
%TO.N,GND*%
X211455000Y-49530000D03*
%TO.P,U1,31,3V3*%
%TO.N,+3.3V*%
X211455000Y-52070000D03*
%TO.P,U1,30,23_A9_CRX1_MCLK1*%
%TO.N,/CAN_RX*%
X211455000Y-54610000D03*
%TO.P,U1,29,22_A8_CTX1*%
%TO.N,/CAN_TX*%
X211455000Y-57150000D03*
%TO.P,U1,28,21_A7_RX5_BCLK1*%
%TO.N,unconnected-(U1-21_A7_RX5_BCLK1-Pad28)*%
X211455000Y-59690000D03*
%TO.P,U1,27,20_A6_TX5_LRCLK1*%
%TO.N,unconnected-(U1-20_A6_TX5_LRCLK1-Pad27)*%
X211455000Y-62230000D03*
%TO.P,U1,26,19_A5_SCL0*%
%TO.N,/SCL0*%
X211455000Y-64770000D03*
%TO.P,U1,25,18_A4_SDA0*%
%TO.N,/SDA0*%
X211455000Y-67310000D03*
%TO.P,U1,24,17_A3_TX4_SDA1*%
%TO.N,/D6*%
X211455000Y-69850000D03*
%TO.P,U1,23,16_A2_RX4_SCL1*%
%TO.N,/D5*%
X211455000Y-72390000D03*
%TO.P,U1,22,15_A1_RX3_SPDIF_IN*%
%TO.N,/RX3*%
X211455000Y-74930000D03*
%TO.P,U1,21,14_A0_TX3_SPDIF_OUT*%
%TO.N,/TX3*%
X211455000Y-77470000D03*
%TO.P,U1,20,13_SCK_CRX1_LED*%
%TO.N,/SCK*%
X211455000Y-80010000D03*
%TO.P,U1,19,ON_OFF*%
%TO.N,unconnected-(U1-ON_OFF-Pad19)*%
X208915000Y-80010000D03*
%TO.P,U1,18,PROGRAM*%
%TO.N,unconnected-(U1-PROGRAM-Pad18)*%
X206375000Y-80010000D03*
%TO.P,U1,17,GND*%
%TO.N,GND*%
X203835000Y-80010000D03*
%TO.P,U1,16,3V3*%
%TO.N,unconnected-(U1-3V3-Pad16)*%
X201295000Y-80010000D03*
%TO.P,U1,15,VBAT*%
%TO.N,unconnected-(U1-VBAT-Pad15)*%
X198755000Y-80010000D03*
%TO.P,U1,14,12_MISO_MQSL*%
%TO.N,/MISO*%
X196215000Y-80010000D03*
%TO.P,U1,13,11_MOSI_CTX1*%
%TO.N,/MOSI*%
X196215000Y-77470000D03*
%TO.P,U1,12,10_CS_MQSR*%
%TO.N,/CS*%
X196215000Y-74930000D03*
%TO.P,U1,11,9_OUT1C*%
%TO.N,unconnected-(U1-9_OUT1C-Pad11)*%
X196215000Y-72390000D03*
%TO.P,U1,10,8_TX2_IN1*%
%TO.N,/TX2*%
X196215000Y-69850000D03*
%TO.P,U1,9,7_RX2_OUT1A*%
%TO.N,/RX2*%
X196215000Y-67310000D03*
%TO.P,U1,8,6_OUT1D*%
%TO.N,/D4*%
X196215000Y-64770000D03*
%TO.P,U1,7,5_IN2*%
%TO.N,/D3*%
X196215000Y-62230000D03*
%TO.P,U1,6,4_BCLK2*%
%TO.N,/D2*%
X196215000Y-59690000D03*
%TO.P,U1,5,3_LRCLK2*%
%TO.N,/D1*%
X196215000Y-57150000D03*
%TO.P,U1,4,2_OUT2*%
%TO.N,/SIGNAL_IN*%
X196215000Y-54610000D03*
%TO.P,U1,3,1_TX1_CTX2_MISO1*%
%TO.N,/TX1*%
X196215000Y-52070000D03*
%TO.P,U1,2,0_RX1_CRX2_CS1*%
%TO.N,/RX1*%
X196215000Y-49530000D03*
%TO.P,U1,1,GND*%
%TO.N,GND*%
X196215000Y-46990000D03*
%TD*%
D14*
%TO.P,C5,1*%
%TO.N,GND*%
X182710000Y-83354087D03*
%TO.P,C5,2*%
%TO.N,+3.3V*%
X180810000Y-83354087D03*
%TD*%
D15*
%TO.P,U2,1,D*%
%TO.N,/CAN_TX*%
X177015000Y-80114087D03*
%TO.P,U2,2,GND*%
%TO.N,GND*%
X178285000Y-80114087D03*
%TO.P,U2,3,VCC*%
%TO.N,+3.3V*%
X179555000Y-80114087D03*
%TO.P,U2,4,R*%
%TO.N,/CAN_RX*%
X180825000Y-80114087D03*
%TO.P,U2,5,Vref*%
%TO.N,unconnected-(U2-Vref-Pad5)*%
X180825000Y-75164087D03*
%TO.P,U2,6,CANL*%
%TO.N,Net-(J1-Pin_2)*%
X179555000Y-75164087D03*
%TO.P,U2,7,CANH*%
%TO.N,Net-(J1-Pin_1)*%
X178285000Y-75164087D03*
%TO.P,U2,8,Rs*%
%TO.N,GND*%
X177015000Y-75164087D03*
%TD*%
D16*
%TO.P,C4,2*%
%TO.N,+5V*%
X179870000Y-63500000D03*
%TO.P,C4,1*%
%TO.N,GND*%
X177970000Y-63500000D03*
%TD*%
D17*
%TO.P,J4,1,Pin_1*%
%TO.N,GND*%
X218440000Y-53340000D03*
D18*
%TO.P,J4,2,Pin_2*%
X215900000Y-53340000D03*
%TO.P,J4,3,Pin_3*%
%TO.N,+5V*%
X218440000Y-55880000D03*
%TO.P,J4,4,Pin_4*%
%TO.N,+3.3V*%
X215900000Y-55880000D03*
%TO.P,J4,5,Pin_5*%
%TO.N,/RX1*%
X218440000Y-58420000D03*
%TO.P,J4,6,Pin_6*%
%TO.N,/TX1*%
X215900000Y-58420000D03*
%TO.P,J4,7,Pin_7*%
%TO.N,/D1*%
X218440000Y-60960000D03*
%TO.P,J4,8,Pin_8*%
%TO.N,/D5*%
X215900000Y-60960000D03*
%TO.P,J4,9,Pin_9*%
%TO.N,/D3*%
X218440000Y-63500000D03*
%TO.P,J4,10,Pin_10*%
%TO.N,/D2*%
X215900000Y-63500000D03*
%TO.P,J4,11,Pin_11*%
%TO.N,/SDA0*%
X218440000Y-66040000D03*
%TO.P,J4,12,Pin_12*%
%TO.N,/SCL0*%
X215900000Y-66040000D03*
%TO.P,J4,13,Pin_13*%
%TO.N,/D6*%
X218440000Y-68580000D03*
%TO.P,J4,14,Pin_14*%
%TO.N,/D4*%
X215900000Y-68580000D03*
%TO.P,J4,15,Pin_15*%
%TO.N,/TX2*%
X218440000Y-71120000D03*
%TO.P,J4,16,Pin_16*%
%TO.N,/RX2*%
X215900000Y-71120000D03*
%TO.P,J4,17,Pin_17*%
%TO.N,/TX3*%
X218440000Y-73660000D03*
%TO.P,J4,18,Pin_18*%
%TO.N,/RX3*%
X215900000Y-73660000D03*
%TO.P,J4,19,Pin_19*%
%TO.N,/MISO*%
X218440000Y-76200000D03*
%TO.P,J4,20,Pin_20*%
%TO.N,/SCK*%
X215900000Y-76200000D03*
%TO.P,J4,21,Pin_21*%
%TO.N,/CS*%
X218440000Y-78740000D03*
%TO.P,J4,22,Pin_22*%
%TO.N,/MOSI*%
X215900000Y-78740000D03*
%TD*%
D19*
%TO.P,H1,1,1*%
%TO.N,GND*%
X217805000Y-48895000D03*
%TD*%
D10*
%TO.P,C2,1*%
%TO.N,+5V*%
X187452000Y-73472000D03*
%TO.P,C2,2*%
%TO.N,GND*%
X187452000Y-75372000D03*
%TD*%
D19*
%TO.P,H4,1,1*%
%TO.N,GND*%
X173355000Y-83185000D03*
%TD*%
D14*
%TO.P,C1,1*%
%TO.N,+3.3V*%
X179065000Y-83354087D03*
%TO.P,C1,2*%
%TO.N,GND*%
X177165000Y-83354087D03*
%TD*%
D20*
%TO.P,J3,1,A*%
%TO.N,+5V*%
X182920000Y-58340000D03*
D21*
%TO.P,J3,2,B*%
%TO.N,GND*%
X179920000Y-48340000D03*
D20*
X187920000Y-58340000D03*
D21*
X190920000Y-48340000D03*
%TD*%
D19*
%TO.P,H2,1,1*%
%TO.N,GND*%
X217805000Y-83185000D03*
%TD*%
D22*
%TO.P,J2,1,Pin_1*%
%TO.N,/SIGNAL_OUT*%
X191635000Y-79200000D03*
%TO.P,J2,2,Pin_2*%
%TO.N,GND*%
X190385000Y-79200000D03*
%TO.P,J2,3,Pin_3*%
X189135000Y-79200000D03*
%TO.P,J2,4,Pin_4*%
%TO.N,+5V*%
X187885000Y-79200000D03*
%TO.P,J2,5,Pin_5*%
X186635000Y-79200000D03*
D23*
%TO.P,J2,MP*%
%TO.N,N/C*%
X193485000Y-82550000D03*
X184785000Y-82550000D03*
%TD*%
D24*
%TO.P,U3,14,VCC*%
%TO.N,+5V*%
X186045000Y-69850000D03*
%TO.P,U3,13,4OE*%
%TO.N,unconnected-(U3-4OE-Pad13)*%
X186045000Y-68580000D03*
%TO.P,U3,12,4A*%
%TO.N,GND*%
X186045000Y-67310000D03*
%TO.P,U3,11,4Y*%
%TO.N,unconnected-(U3-4Y-Pad11)*%
X186045000Y-66040000D03*
%TO.P,U3,10,3OE*%
%TO.N,unconnected-(U3-3OE-Pad10)*%
X186045000Y-64770000D03*
%TO.P,U3,9,3A*%
%TO.N,GND*%
X186045000Y-63500000D03*
%TO.P,U3,8,3Y*%
%TO.N,unconnected-(U3-3Y-Pad8)*%
X186045000Y-62230000D03*
%TO.P,U3,7,GND*%
%TO.N,GND*%
X190995000Y-62230000D03*
%TO.P,U3,6,2Y*%
%TO.N,unconnected-(U3-2Y-Pad6)*%
X190995000Y-63500000D03*
%TO.P,U3,5,2A*%
%TO.N,GND*%
X190995000Y-64770000D03*
%TO.P,U3,4,2OE*%
%TO.N,unconnected-(U3-2OE-Pad4)*%
X190995000Y-66040000D03*
%TO.P,U3,3,1Y*%
%TO.N,/SIGNAL_OUT*%
X190995000Y-67310000D03*
%TO.P,U3,2,1A*%
%TO.N,/SIGNAL_IN*%
X190995000Y-68580000D03*
%TO.P,U3,1,1OE*%
%TO.N,GND*%
X190995000Y-69850000D03*
%TD*%
D19*
%TO.P,H3,1,1*%
%TO.N,GND*%
X173355000Y-48895000D03*
%TD*%
D25*
%TO.N,+3.3V*%
X182245000Y-76835000D03*
X193675000Y-65405000D03*
%TO.N,GND*%
X177165000Y-62230000D03*
X177800000Y-81915000D03*
X190385000Y-76950000D03*
X185630673Y-75373844D03*
X184150000Y-63500000D03*
X193040000Y-63500000D03*
X175895000Y-73660000D03*
X181610000Y-81915000D03*
X189135000Y-76930000D03*
%TO.N,/D4*%
X200025000Y-64770000D03*
X204470000Y-65405000D03*
%TO.N,/D3*%
X200025000Y-62230000D03*
X206569799Y-63059799D03*
%TO.N,/D2*%
X209550000Y-60325000D03*
X202565000Y-59690000D03*
%TO.N,/D1*%
X205105000Y-57150000D03*
X212725000Y-55880000D03*
%TO.N,/RX2*%
X201930000Y-67945000D03*
X200025000Y-67310000D03*
%TO.N,/TX1*%
X208915000Y-52705000D03*
X213747168Y-55492832D03*
%TD*%
D26*
%TO.N,/CAN_RX*%
X200025000Y-66040000D02*
X211455000Y-54610000D01*
%TO.N,/RX1*%
X196215000Y-49530000D02*
X197340000Y-50655000D01*
X217265000Y-55447462D02*
X217265000Y-57245000D01*
X217265000Y-57245000D02*
X218440000Y-58420000D01*
X214725000Y-53826701D02*
X215413299Y-54515000D01*
X197340000Y-50655000D02*
X212127538Y-50655000D01*
X212127538Y-50655000D02*
X214725000Y-53252462D01*
X214725000Y-53252462D02*
X214725000Y-53826701D01*
X215413299Y-54515000D02*
X216332538Y-54515000D01*
X216332538Y-54515000D02*
X217265000Y-55447462D01*
%TO.N,+3.3V*%
X195435000Y-63645000D02*
X199880000Y-63645000D01*
D27*
X211455000Y-52070000D02*
X215265000Y-55880000D01*
D26*
X179555000Y-80114087D02*
X179555000Y-79525000D01*
X199880000Y-63645000D02*
X211455000Y-52070000D01*
X179555000Y-79525000D02*
X182245000Y-76835000D01*
X210820000Y-52070000D02*
X212090000Y-52070000D01*
X193675000Y-65405000D02*
X195435000Y-63645000D01*
D27*
X215265000Y-55880000D02*
X215900000Y-55880000D01*
D26*
X179070000Y-80599087D02*
X179070000Y-83349087D01*
X179070000Y-83349087D02*
X179065000Y-83354087D01*
X180810000Y-83354087D02*
X179065000Y-83354087D01*
X179555000Y-80114087D02*
X179070000Y-80599087D01*
D28*
%TO.N,GND*%
X189135000Y-79200000D02*
X189135000Y-76930000D01*
D26*
X191135000Y-74229000D02*
X189992000Y-75372000D01*
X178285000Y-80114087D02*
X178285000Y-81430000D01*
X186045000Y-63500000D02*
X184150000Y-63500000D01*
X184150000Y-65791751D02*
X184150000Y-63500000D01*
X190995000Y-62230000D02*
X191770000Y-62230000D01*
X177970000Y-63035000D02*
X177165000Y-62230000D01*
X191135000Y-69990000D02*
X191135000Y-74229000D01*
X182710000Y-83354087D02*
X182710000Y-83015000D01*
X185668249Y-67310000D02*
X184150000Y-65791751D01*
X191770000Y-64770000D02*
X193040000Y-63500000D01*
X191770000Y-62230000D02*
X193040000Y-63500000D01*
X177165000Y-83354087D02*
X177165000Y-82550000D01*
X190995000Y-69850000D02*
X191135000Y-69990000D01*
X182710000Y-83015000D02*
X181610000Y-81915000D01*
X187452000Y-75372000D02*
X185632517Y-75372000D01*
X185632517Y-75372000D02*
X185630673Y-75373844D01*
X178285000Y-81430000D02*
X177800000Y-81915000D01*
X177015000Y-74780000D02*
X175895000Y-73660000D01*
X186045000Y-67310000D02*
X185668249Y-67310000D01*
X189992000Y-75372000D02*
X187452000Y-75372000D01*
D28*
X190385000Y-79200000D02*
X190385000Y-76950000D01*
D26*
X190995000Y-64770000D02*
X191770000Y-64770000D01*
X177970000Y-63500000D02*
X177970000Y-63035000D01*
X177165000Y-82550000D02*
X177800000Y-81915000D01*
X177015000Y-75164087D02*
X177015000Y-74780000D01*
D29*
%TO.N,+5V*%
X182920000Y-62825000D02*
X182920000Y-58340000D01*
X183756739Y-73472000D02*
X182920000Y-72635261D01*
D30*
X210165000Y-48280000D02*
X211455000Y-46990000D01*
X186015000Y-55245000D02*
X188732233Y-55245000D01*
D29*
X182920000Y-72635261D02*
X182920000Y-64175000D01*
D28*
X187885000Y-78665000D02*
X186635000Y-77415000D01*
D29*
X184150000Y-76835000D02*
X182880000Y-75565000D01*
D28*
X186635000Y-77415000D02*
X186635000Y-79200000D01*
D26*
X187885000Y-79200000D02*
X187885000Y-78665000D01*
X187452000Y-73472000D02*
X189992000Y-73472000D01*
D29*
X182245000Y-63500000D02*
X182920000Y-62825000D01*
D27*
X218440000Y-55880000D02*
X217190000Y-54630000D01*
D30*
X188732233Y-55245000D02*
X195697233Y-48280000D01*
D29*
X186055000Y-76835000D02*
X184150000Y-76835000D01*
D27*
X217190000Y-54630000D02*
X217190000Y-52725000D01*
D26*
X179870000Y-63500000D02*
X182245000Y-63500000D01*
D30*
X182920000Y-58340000D02*
X186015000Y-55245000D01*
D29*
X186055000Y-76835000D02*
X186635000Y-77415000D01*
D30*
X195697233Y-48280000D02*
X210165000Y-48280000D01*
D26*
X183756739Y-73472000D02*
X187452000Y-73472000D01*
X186045000Y-69850000D02*
X187452000Y-71257000D01*
D29*
X183756739Y-73472000D02*
X182880000Y-74348739D01*
D27*
X217190000Y-52725000D02*
X211455000Y-46990000D01*
D29*
X182920000Y-64175000D02*
X182285000Y-63540000D01*
D26*
X187970000Y-78695000D02*
X187960000Y-78685000D01*
X187452000Y-71257000D02*
X187452000Y-73472000D01*
D29*
X182880000Y-74348739D02*
X182880000Y-75565000D01*
D26*
%TO.N,/SIGNAL_OUT*%
X192295000Y-68233249D02*
X192295000Y-78540000D01*
X190995000Y-67310000D02*
X191371751Y-67310000D01*
X191371751Y-67310000D02*
X192295000Y-68233249D01*
X192295000Y-78540000D02*
X191635000Y-79200000D01*
%TO.N,/D4*%
X204470000Y-65405000D02*
X205250000Y-66185000D01*
X213505000Y-66185000D02*
X215900000Y-68580000D01*
X196215000Y-64770000D02*
X200025000Y-64770000D01*
X205250000Y-66185000D02*
X213505000Y-66185000D01*
%TO.N,/D3*%
X217265000Y-64675000D02*
X218440000Y-63500000D01*
X196215000Y-62230000D02*
X200025000Y-62230000D01*
X213850000Y-63355000D02*
X215170000Y-64675000D01*
X215170000Y-64675000D02*
X217265000Y-64675000D01*
X206865000Y-63355000D02*
X213850000Y-63355000D01*
X206569799Y-63059799D02*
X206865000Y-63355000D01*
%TO.N,/D2*%
X209550000Y-60325000D02*
X210040000Y-60815000D01*
X196215000Y-59690000D02*
X202565000Y-59690000D01*
X210040000Y-60815000D02*
X213215000Y-60815000D01*
X213215000Y-60815000D02*
X215900000Y-63500000D01*
%TO.N,/D1*%
X215603299Y-59785000D02*
X217265000Y-59785000D01*
X196215000Y-57150000D02*
X205105000Y-57150000D01*
X212725000Y-55880000D02*
X212725000Y-56906701D01*
X212725000Y-56906701D02*
X215603299Y-59785000D01*
X217265000Y-59785000D02*
X218440000Y-60960000D01*
%TO.N,/SCK*%
X215265000Y-76200000D02*
X215900000Y-76200000D01*
X211455000Y-80010000D02*
X215265000Y-76200000D01*
%TO.N,/MISO*%
X215318299Y-77470000D02*
X217170000Y-77470000D01*
X211085000Y-82285000D02*
X214630000Y-78740000D01*
X217170000Y-77470000D02*
X218440000Y-76200000D01*
X196215000Y-80010000D02*
X198490000Y-82285000D01*
X214630000Y-78740000D02*
X214630000Y-78158299D01*
X214630000Y-78158299D02*
X215318299Y-77470000D01*
X198490000Y-82285000D02*
X211085000Y-82285000D01*
%TO.N,/MOSI*%
X196215000Y-77470000D02*
X195090000Y-78595000D01*
X195090000Y-80790000D02*
X197035000Y-82735000D01*
X197035000Y-82735000D02*
X211905000Y-82735000D01*
X211905000Y-82735000D02*
X215900000Y-78740000D01*
X195090000Y-78595000D02*
X195090000Y-80790000D01*
%TO.N,/TX3*%
X211455000Y-77470000D02*
X214090000Y-74835000D01*
X217265000Y-74835000D02*
X218440000Y-73660000D01*
X214090000Y-74835000D02*
X217265000Y-74835000D01*
%TO.N,/RX3*%
X212725000Y-73660000D02*
X215900000Y-73660000D01*
X211455000Y-74930000D02*
X212725000Y-73660000D01*
%TO.N,/TX2*%
X215413299Y-72295000D02*
X217265000Y-72295000D01*
X214383299Y-71265000D02*
X215413299Y-72295000D01*
X205425991Y-69850000D02*
X206840991Y-71265000D01*
X217265000Y-72295000D02*
X218440000Y-71120000D01*
X206840991Y-71265000D02*
X214383299Y-71265000D01*
X196215000Y-69850000D02*
X205425991Y-69850000D01*
%TO.N,/RX2*%
X202710000Y-68725000D02*
X213505000Y-68725000D01*
X201930000Y-67945000D02*
X202710000Y-68725000D01*
X213505000Y-68725000D02*
X215900000Y-71120000D01*
X196215000Y-67310000D02*
X200025000Y-67310000D01*
%TO.N,/TX1*%
X208280000Y-52070000D02*
X208915000Y-52705000D01*
X213747168Y-55492832D02*
X213747168Y-56267168D01*
X196215000Y-52070000D02*
X208280000Y-52070000D01*
X213747168Y-56267168D02*
X215900000Y-58420000D01*
%TO.N,/SCL0*%
X211455000Y-64770000D02*
X213360000Y-64770000D01*
X214630000Y-66040000D02*
X215900000Y-66040000D01*
X213360000Y-64770000D02*
X214630000Y-66040000D01*
%TO.N,/CS*%
X196215000Y-74930000D02*
X194640000Y-76505000D01*
X196848604Y-83185000D02*
X213995000Y-83185000D01*
X213995000Y-83185000D02*
X218440000Y-78740000D01*
X194640000Y-76505000D02*
X194640000Y-80976396D01*
X194640000Y-80976396D02*
X196848604Y-83185000D01*
%TO.N,/CAN_TX*%
X200170000Y-68435000D02*
X195090000Y-68435000D01*
X176340000Y-80789087D02*
X177015000Y-80114087D01*
X211455000Y-57150000D02*
X200170000Y-68435000D01*
X193195000Y-70330000D02*
X193195000Y-79798147D01*
X193195000Y-79798147D02*
X188589060Y-84404087D01*
X176340000Y-84067260D02*
X176340000Y-80789087D01*
X188589060Y-84404087D02*
X176676827Y-84404087D01*
X176676827Y-84404087D02*
X176340000Y-84067260D01*
X195090000Y-68435000D02*
X193195000Y-70330000D01*
%TO.N,/CAN_RX*%
X192745000Y-68240000D02*
X194945000Y-66040000D01*
X192745000Y-79611751D02*
X192745000Y-68240000D01*
X181085913Y-80375000D02*
X191981751Y-80375000D01*
X180825000Y-80114087D02*
X181085913Y-80375000D01*
X194945000Y-66040000D02*
X200025000Y-66040000D01*
X191981751Y-80375000D02*
X192745000Y-79611751D01*
%TO.N,/SIGNAL_IN*%
X190618249Y-68580000D02*
X189695000Y-67656751D01*
X190995000Y-68580000D02*
X190618249Y-68580000D01*
X189695000Y-67656751D02*
X189695000Y-61130000D01*
X189695000Y-61130000D02*
X196215000Y-54610000D01*
%TO.N,Net-(J1-Pin_2)*%
X179555000Y-71474087D02*
X179545000Y-71464087D01*
X179555000Y-75164087D02*
X179555000Y-71474087D01*
%TO.N,Net-(J1-Pin_1)*%
X178295000Y-75154087D02*
X178285000Y-75164087D01*
X178295000Y-71464087D02*
X178295000Y-75154087D01*
%TD*%
M02*
