%TF.GenerationSoftware,KiCad,Pcbnew,7.0.6-0*%
%TF.CreationDate,2024-01-30T23:56:51-05:00*%
%TF.ProjectId,Peripherals Board (new),50657269-7068-4657-9261-6c7320426f61,rev?*%
%TF.SameCoordinates,Original*%
%TF.FileFunction,Legend,Top*%
%TF.FilePolarity,Positive*%
%FSLAX46Y46*%
G04 Gerber Fmt 4.6, Leading zero omitted, Abs format (unit mm)*
G04 Created by KiCad (PCBNEW 7.0.6-0) date 2024-01-30 23:56:51*
%MOMM*%
%LPD*%
G01*
G04 APERTURE LIST*
%ADD10C,0.300000*%
%ADD11C,0.150000*%
%ADD12C,0.120000*%
G04 APERTURE END LIST*
D10*
X172061629Y-56469233D02*
X173561629Y-56469233D01*
X173561629Y-56469233D02*
X173561629Y-57040662D01*
X173561629Y-57040662D02*
X173490200Y-57183519D01*
X173490200Y-57183519D02*
X173418772Y-57254948D01*
X173418772Y-57254948D02*
X173275915Y-57326376D01*
X173275915Y-57326376D02*
X173061629Y-57326376D01*
X173061629Y-57326376D02*
X172918772Y-57254948D01*
X172918772Y-57254948D02*
X172847343Y-57183519D01*
X172847343Y-57183519D02*
X172775915Y-57040662D01*
X172775915Y-57040662D02*
X172775915Y-56469233D01*
X172133058Y-58540662D02*
X172061629Y-58397805D01*
X172061629Y-58397805D02*
X172061629Y-58112091D01*
X172061629Y-58112091D02*
X172133058Y-57969233D01*
X172133058Y-57969233D02*
X172275915Y-57897805D01*
X172275915Y-57897805D02*
X172847343Y-57897805D01*
X172847343Y-57897805D02*
X172990200Y-57969233D01*
X172990200Y-57969233D02*
X173061629Y-58112091D01*
X173061629Y-58112091D02*
X173061629Y-58397805D01*
X173061629Y-58397805D02*
X172990200Y-58540662D01*
X172990200Y-58540662D02*
X172847343Y-58612091D01*
X172847343Y-58612091D02*
X172704486Y-58612091D01*
X172704486Y-58612091D02*
X172561629Y-57897805D01*
X172061629Y-59254947D02*
X173061629Y-59254947D01*
X172775915Y-59254947D02*
X172918772Y-59326376D01*
X172918772Y-59326376D02*
X172990200Y-59397805D01*
X172990200Y-59397805D02*
X173061629Y-59540662D01*
X173061629Y-59540662D02*
X173061629Y-59683519D01*
X172061629Y-60183518D02*
X173061629Y-60183518D01*
X173561629Y-60183518D02*
X173490200Y-60112090D01*
X173490200Y-60112090D02*
X173418772Y-60183518D01*
X173418772Y-60183518D02*
X173490200Y-60254947D01*
X173490200Y-60254947D02*
X173561629Y-60183518D01*
X173561629Y-60183518D02*
X173418772Y-60183518D01*
X173061629Y-60897804D02*
X171561629Y-60897804D01*
X172990200Y-60897804D02*
X173061629Y-61040662D01*
X173061629Y-61040662D02*
X173061629Y-61326376D01*
X173061629Y-61326376D02*
X172990200Y-61469233D01*
X172990200Y-61469233D02*
X172918772Y-61540662D01*
X172918772Y-61540662D02*
X172775915Y-61612090D01*
X172775915Y-61612090D02*
X172347343Y-61612090D01*
X172347343Y-61612090D02*
X172204486Y-61540662D01*
X172204486Y-61540662D02*
X172133058Y-61469233D01*
X172133058Y-61469233D02*
X172061629Y-61326376D01*
X172061629Y-61326376D02*
X172061629Y-61040662D01*
X172061629Y-61040662D02*
X172133058Y-60897804D01*
X172061629Y-62254947D02*
X173561629Y-62254947D01*
X172061629Y-62897805D02*
X172847343Y-62897805D01*
X172847343Y-62897805D02*
X172990200Y-62826376D01*
X172990200Y-62826376D02*
X173061629Y-62683519D01*
X173061629Y-62683519D02*
X173061629Y-62469233D01*
X173061629Y-62469233D02*
X172990200Y-62326376D01*
X172990200Y-62326376D02*
X172918772Y-62254947D01*
X172133058Y-64183519D02*
X172061629Y-64040662D01*
X172061629Y-64040662D02*
X172061629Y-63754948D01*
X172061629Y-63754948D02*
X172133058Y-63612090D01*
X172133058Y-63612090D02*
X172275915Y-63540662D01*
X172275915Y-63540662D02*
X172847343Y-63540662D01*
X172847343Y-63540662D02*
X172990200Y-63612090D01*
X172990200Y-63612090D02*
X173061629Y-63754948D01*
X173061629Y-63754948D02*
X173061629Y-64040662D01*
X173061629Y-64040662D02*
X172990200Y-64183519D01*
X172990200Y-64183519D02*
X172847343Y-64254948D01*
X172847343Y-64254948D02*
X172704486Y-64254948D01*
X172704486Y-64254948D02*
X172561629Y-63540662D01*
X172061629Y-64897804D02*
X173061629Y-64897804D01*
X172775915Y-64897804D02*
X172918772Y-64969233D01*
X172918772Y-64969233D02*
X172990200Y-65040662D01*
X172990200Y-65040662D02*
X173061629Y-65183519D01*
X173061629Y-65183519D02*
X173061629Y-65326376D01*
X172061629Y-66469233D02*
X172847343Y-66469233D01*
X172847343Y-66469233D02*
X172990200Y-66397804D01*
X172990200Y-66397804D02*
X173061629Y-66254947D01*
X173061629Y-66254947D02*
X173061629Y-65969233D01*
X173061629Y-65969233D02*
X172990200Y-65826375D01*
X172133058Y-66469233D02*
X172061629Y-66326375D01*
X172061629Y-66326375D02*
X172061629Y-65969233D01*
X172061629Y-65969233D02*
X172133058Y-65826375D01*
X172133058Y-65826375D02*
X172275915Y-65754947D01*
X172275915Y-65754947D02*
X172418772Y-65754947D01*
X172418772Y-65754947D02*
X172561629Y-65826375D01*
X172561629Y-65826375D02*
X172633058Y-65969233D01*
X172633058Y-65969233D02*
X172633058Y-66326375D01*
X172633058Y-66326375D02*
X172704486Y-66469233D01*
X172061629Y-67397804D02*
X172133058Y-67254947D01*
X172133058Y-67254947D02*
X172275915Y-67183518D01*
X172275915Y-67183518D02*
X173561629Y-67183518D01*
X172133058Y-67897804D02*
X172061629Y-68040661D01*
X172061629Y-68040661D02*
X172061629Y-68326375D01*
X172061629Y-68326375D02*
X172133058Y-68469232D01*
X172133058Y-68469232D02*
X172275915Y-68540661D01*
X172275915Y-68540661D02*
X172347343Y-68540661D01*
X172347343Y-68540661D02*
X172490200Y-68469232D01*
X172490200Y-68469232D02*
X172561629Y-68326375D01*
X172561629Y-68326375D02*
X172561629Y-68112090D01*
X172561629Y-68112090D02*
X172633058Y-67969232D01*
X172633058Y-67969232D02*
X172775915Y-67897804D01*
X172775915Y-67897804D02*
X172847343Y-67897804D01*
X172847343Y-67897804D02*
X172990200Y-67969232D01*
X172990200Y-67969232D02*
X173061629Y-68112090D01*
X173061629Y-68112090D02*
X173061629Y-68326375D01*
X173061629Y-68326375D02*
X172990200Y-68469232D01*
X172061629Y-71183518D02*
X172775915Y-70683518D01*
X172061629Y-70326375D02*
X173561629Y-70326375D01*
X173561629Y-70326375D02*
X173561629Y-70897804D01*
X173561629Y-70897804D02*
X173490200Y-71040661D01*
X173490200Y-71040661D02*
X173418772Y-71112090D01*
X173418772Y-71112090D02*
X173275915Y-71183518D01*
X173275915Y-71183518D02*
X173061629Y-71183518D01*
X173061629Y-71183518D02*
X172918772Y-71112090D01*
X172918772Y-71112090D02*
X172847343Y-71040661D01*
X172847343Y-71040661D02*
X172775915Y-70897804D01*
X172775915Y-70897804D02*
X172775915Y-70326375D01*
X172133058Y-72397804D02*
X172061629Y-72254947D01*
X172061629Y-72254947D02*
X172061629Y-71969233D01*
X172061629Y-71969233D02*
X172133058Y-71826375D01*
X172133058Y-71826375D02*
X172275915Y-71754947D01*
X172275915Y-71754947D02*
X172847343Y-71754947D01*
X172847343Y-71754947D02*
X172990200Y-71826375D01*
X172990200Y-71826375D02*
X173061629Y-71969233D01*
X173061629Y-71969233D02*
X173061629Y-72254947D01*
X173061629Y-72254947D02*
X172990200Y-72397804D01*
X172990200Y-72397804D02*
X172847343Y-72469233D01*
X172847343Y-72469233D02*
X172704486Y-72469233D01*
X172704486Y-72469233D02*
X172561629Y-71754947D01*
X173061629Y-72969232D02*
X172061629Y-73326375D01*
X172061629Y-73326375D02*
X173061629Y-73683518D01*
X172204486Y-74254946D02*
X172133058Y-74326375D01*
X172133058Y-74326375D02*
X172061629Y-74254946D01*
X172061629Y-74254946D02*
X172133058Y-74183518D01*
X172133058Y-74183518D02*
X172204486Y-74254946D01*
X172204486Y-74254946D02*
X172061629Y-74254946D01*
X172061629Y-76897804D02*
X172061629Y-76040661D01*
X172061629Y-76469232D02*
X173561629Y-76469232D01*
X173561629Y-76469232D02*
X173347343Y-76326375D01*
X173347343Y-76326375D02*
X173204486Y-76183518D01*
X173204486Y-76183518D02*
X173133058Y-76040661D01*
D11*
X192129580Y-74588666D02*
X192177200Y-74636285D01*
X192177200Y-74636285D02*
X192224819Y-74779142D01*
X192224819Y-74779142D02*
X192224819Y-74874380D01*
X192224819Y-74874380D02*
X192177200Y-75017237D01*
X192177200Y-75017237D02*
X192081961Y-75112475D01*
X192081961Y-75112475D02*
X191986723Y-75160094D01*
X191986723Y-75160094D02*
X191796247Y-75207713D01*
X191796247Y-75207713D02*
X191653390Y-75207713D01*
X191653390Y-75207713D02*
X191462914Y-75160094D01*
X191462914Y-75160094D02*
X191367676Y-75112475D01*
X191367676Y-75112475D02*
X191272438Y-75017237D01*
X191272438Y-75017237D02*
X191224819Y-74874380D01*
X191224819Y-74874380D02*
X191224819Y-74779142D01*
X191224819Y-74779142D02*
X191272438Y-74636285D01*
X191272438Y-74636285D02*
X191320057Y-74588666D01*
X191224819Y-74255332D02*
X191224819Y-73636285D01*
X191224819Y-73636285D02*
X191605771Y-73969618D01*
X191605771Y-73969618D02*
X191605771Y-73826761D01*
X191605771Y-73826761D02*
X191653390Y-73731523D01*
X191653390Y-73731523D02*
X191701009Y-73683904D01*
X191701009Y-73683904D02*
X191796247Y-73636285D01*
X191796247Y-73636285D02*
X192034342Y-73636285D01*
X192034342Y-73636285D02*
X192129580Y-73683904D01*
X192129580Y-73683904D02*
X192177200Y-73731523D01*
X192177200Y-73731523D02*
X192224819Y-73826761D01*
X192224819Y-73826761D02*
X192224819Y-74112475D01*
X192224819Y-74112475D02*
X192177200Y-74207713D01*
X192177200Y-74207713D02*
X192129580Y-74255332D01*
X178586666Y-64968906D02*
X178586666Y-65683191D01*
X178586666Y-65683191D02*
X178539047Y-65826048D01*
X178539047Y-65826048D02*
X178443809Y-65921287D01*
X178443809Y-65921287D02*
X178300952Y-65968906D01*
X178300952Y-65968906D02*
X178205714Y-65968906D01*
X179586666Y-65968906D02*
X179015238Y-65968906D01*
X179300952Y-65968906D02*
X179300952Y-64968906D01*
X179300952Y-64968906D02*
X179205714Y-65111763D01*
X179205714Y-65111763D02*
X179110476Y-65207001D01*
X179110476Y-65207001D02*
X179015238Y-65254620D01*
X203073095Y-76924819D02*
X203073095Y-77734342D01*
X203073095Y-77734342D02*
X203120714Y-77829580D01*
X203120714Y-77829580D02*
X203168333Y-77877200D01*
X203168333Y-77877200D02*
X203263571Y-77924819D01*
X203263571Y-77924819D02*
X203454047Y-77924819D01*
X203454047Y-77924819D02*
X203549285Y-77877200D01*
X203549285Y-77877200D02*
X203596904Y-77829580D01*
X203596904Y-77829580D02*
X203644523Y-77734342D01*
X203644523Y-77734342D02*
X203644523Y-76924819D01*
X204644523Y-77924819D02*
X204073095Y-77924819D01*
X204358809Y-77924819D02*
X204358809Y-76924819D01*
X204358809Y-76924819D02*
X204263571Y-77067676D01*
X204263571Y-77067676D02*
X204168333Y-77162914D01*
X204168333Y-77162914D02*
X204073095Y-77210533D01*
X181593333Y-85393667D02*
X181545714Y-85441287D01*
X181545714Y-85441287D02*
X181402857Y-85488906D01*
X181402857Y-85488906D02*
X181307619Y-85488906D01*
X181307619Y-85488906D02*
X181164762Y-85441287D01*
X181164762Y-85441287D02*
X181069524Y-85346048D01*
X181069524Y-85346048D02*
X181021905Y-85250810D01*
X181021905Y-85250810D02*
X180974286Y-85060334D01*
X180974286Y-85060334D02*
X180974286Y-84917477D01*
X180974286Y-84917477D02*
X181021905Y-84727001D01*
X181021905Y-84727001D02*
X181069524Y-84631763D01*
X181069524Y-84631763D02*
X181164762Y-84536525D01*
X181164762Y-84536525D02*
X181307619Y-84488906D01*
X181307619Y-84488906D02*
X181402857Y-84488906D01*
X181402857Y-84488906D02*
X181545714Y-84536525D01*
X181545714Y-84536525D02*
X181593333Y-84584144D01*
X182498095Y-84488906D02*
X182021905Y-84488906D01*
X182021905Y-84488906D02*
X181974286Y-84965096D01*
X181974286Y-84965096D02*
X182021905Y-84917477D01*
X182021905Y-84917477D02*
X182117143Y-84869858D01*
X182117143Y-84869858D02*
X182355238Y-84869858D01*
X182355238Y-84869858D02*
X182450476Y-84917477D01*
X182450476Y-84917477D02*
X182498095Y-84965096D01*
X182498095Y-84965096D02*
X182545714Y-85060334D01*
X182545714Y-85060334D02*
X182545714Y-85298429D01*
X182545714Y-85298429D02*
X182498095Y-85393667D01*
X182498095Y-85393667D02*
X182450476Y-85441287D01*
X182450476Y-85441287D02*
X182355238Y-85488906D01*
X182355238Y-85488906D02*
X182117143Y-85488906D01*
X182117143Y-85488906D02*
X182021905Y-85441287D01*
X182021905Y-85441287D02*
X181974286Y-85393667D01*
X174974819Y-78400991D02*
X175784342Y-78400991D01*
X175784342Y-78400991D02*
X175879580Y-78353372D01*
X175879580Y-78353372D02*
X175927200Y-78305753D01*
X175927200Y-78305753D02*
X175974819Y-78210515D01*
X175974819Y-78210515D02*
X175974819Y-78020039D01*
X175974819Y-78020039D02*
X175927200Y-77924801D01*
X175927200Y-77924801D02*
X175879580Y-77877182D01*
X175879580Y-77877182D02*
X175784342Y-77829563D01*
X175784342Y-77829563D02*
X174974819Y-77829563D01*
X175070057Y-77400991D02*
X175022438Y-77353372D01*
X175022438Y-77353372D02*
X174974819Y-77258134D01*
X174974819Y-77258134D02*
X174974819Y-77020039D01*
X174974819Y-77020039D02*
X175022438Y-76924801D01*
X175022438Y-76924801D02*
X175070057Y-76877182D01*
X175070057Y-76877182D02*
X175165295Y-76829563D01*
X175165295Y-76829563D02*
X175260533Y-76829563D01*
X175260533Y-76829563D02*
X175403390Y-76877182D01*
X175403390Y-76877182D02*
X175974819Y-77448610D01*
X175974819Y-77448610D02*
X175974819Y-76829563D01*
X178753333Y-62179580D02*
X178705714Y-62227200D01*
X178705714Y-62227200D02*
X178562857Y-62274819D01*
X178562857Y-62274819D02*
X178467619Y-62274819D01*
X178467619Y-62274819D02*
X178324762Y-62227200D01*
X178324762Y-62227200D02*
X178229524Y-62131961D01*
X178229524Y-62131961D02*
X178181905Y-62036723D01*
X178181905Y-62036723D02*
X178134286Y-61846247D01*
X178134286Y-61846247D02*
X178134286Y-61703390D01*
X178134286Y-61703390D02*
X178181905Y-61512914D01*
X178181905Y-61512914D02*
X178229524Y-61417676D01*
X178229524Y-61417676D02*
X178324762Y-61322438D01*
X178324762Y-61322438D02*
X178467619Y-61274819D01*
X178467619Y-61274819D02*
X178562857Y-61274819D01*
X178562857Y-61274819D02*
X178705714Y-61322438D01*
X178705714Y-61322438D02*
X178753333Y-61370057D01*
X179610476Y-61608152D02*
X179610476Y-62274819D01*
X179372381Y-61227200D02*
X179134286Y-61941485D01*
X179134286Y-61941485D02*
X179753333Y-61941485D01*
X214931666Y-80734819D02*
X214931666Y-81449104D01*
X214931666Y-81449104D02*
X214884047Y-81591961D01*
X214884047Y-81591961D02*
X214788809Y-81687200D01*
X214788809Y-81687200D02*
X214645952Y-81734819D01*
X214645952Y-81734819D02*
X214550714Y-81734819D01*
X215836428Y-81068152D02*
X215836428Y-81734819D01*
X215598333Y-80687200D02*
X215360238Y-81401485D01*
X215360238Y-81401485D02*
X215979285Y-81401485D01*
X185779580Y-74461666D02*
X185827200Y-74509285D01*
X185827200Y-74509285D02*
X185874819Y-74652142D01*
X185874819Y-74652142D02*
X185874819Y-74747380D01*
X185874819Y-74747380D02*
X185827200Y-74890237D01*
X185827200Y-74890237D02*
X185731961Y-74985475D01*
X185731961Y-74985475D02*
X185636723Y-75033094D01*
X185636723Y-75033094D02*
X185446247Y-75080713D01*
X185446247Y-75080713D02*
X185303390Y-75080713D01*
X185303390Y-75080713D02*
X185112914Y-75033094D01*
X185112914Y-75033094D02*
X185017676Y-74985475D01*
X185017676Y-74985475D02*
X184922438Y-74890237D01*
X184922438Y-74890237D02*
X184874819Y-74747380D01*
X184874819Y-74747380D02*
X184874819Y-74652142D01*
X184874819Y-74652142D02*
X184922438Y-74509285D01*
X184922438Y-74509285D02*
X184970057Y-74461666D01*
X184970057Y-74080713D02*
X184922438Y-74033094D01*
X184922438Y-74033094D02*
X184874819Y-73937856D01*
X184874819Y-73937856D02*
X184874819Y-73699761D01*
X184874819Y-73699761D02*
X184922438Y-73604523D01*
X184922438Y-73604523D02*
X184970057Y-73556904D01*
X184970057Y-73556904D02*
X185065295Y-73509285D01*
X185065295Y-73509285D02*
X185160533Y-73509285D01*
X185160533Y-73509285D02*
X185303390Y-73556904D01*
X185303390Y-73556904D02*
X185874819Y-74128332D01*
X185874819Y-74128332D02*
X185874819Y-73509285D01*
X177948333Y-85393667D02*
X177900714Y-85441287D01*
X177900714Y-85441287D02*
X177757857Y-85488906D01*
X177757857Y-85488906D02*
X177662619Y-85488906D01*
X177662619Y-85488906D02*
X177519762Y-85441287D01*
X177519762Y-85441287D02*
X177424524Y-85346048D01*
X177424524Y-85346048D02*
X177376905Y-85250810D01*
X177376905Y-85250810D02*
X177329286Y-85060334D01*
X177329286Y-85060334D02*
X177329286Y-84917477D01*
X177329286Y-84917477D02*
X177376905Y-84727001D01*
X177376905Y-84727001D02*
X177424524Y-84631763D01*
X177424524Y-84631763D02*
X177519762Y-84536525D01*
X177519762Y-84536525D02*
X177662619Y-84488906D01*
X177662619Y-84488906D02*
X177757857Y-84488906D01*
X177757857Y-84488906D02*
X177900714Y-84536525D01*
X177900714Y-84536525D02*
X177948333Y-84584144D01*
X178900714Y-85488906D02*
X178329286Y-85488906D01*
X178615000Y-85488906D02*
X178615000Y-84488906D01*
X178615000Y-84488906D02*
X178519762Y-84631763D01*
X178519762Y-84631763D02*
X178424524Y-84727001D01*
X178424524Y-84727001D02*
X178329286Y-84774620D01*
X188801666Y-84604819D02*
X188801666Y-85319104D01*
X188801666Y-85319104D02*
X188754047Y-85461961D01*
X188754047Y-85461961D02*
X188658809Y-85557200D01*
X188658809Y-85557200D02*
X188515952Y-85604819D01*
X188515952Y-85604819D02*
X188420714Y-85604819D01*
X189230238Y-84700057D02*
X189277857Y-84652438D01*
X189277857Y-84652438D02*
X189373095Y-84604819D01*
X189373095Y-84604819D02*
X189611190Y-84604819D01*
X189611190Y-84604819D02*
X189706428Y-84652438D01*
X189706428Y-84652438D02*
X189754047Y-84700057D01*
X189754047Y-84700057D02*
X189801666Y-84795295D01*
X189801666Y-84795295D02*
X189801666Y-84890533D01*
X189801666Y-84890533D02*
X189754047Y-85033390D01*
X189754047Y-85033390D02*
X189182619Y-85604819D01*
X189182619Y-85604819D02*
X189801666Y-85604819D01*
X187758095Y-70774819D02*
X187758095Y-71584342D01*
X187758095Y-71584342D02*
X187805714Y-71679580D01*
X187805714Y-71679580D02*
X187853333Y-71727200D01*
X187853333Y-71727200D02*
X187948571Y-71774819D01*
X187948571Y-71774819D02*
X188139047Y-71774819D01*
X188139047Y-71774819D02*
X188234285Y-71727200D01*
X188234285Y-71727200D02*
X188281904Y-71679580D01*
X188281904Y-71679580D02*
X188329523Y-71584342D01*
X188329523Y-71584342D02*
X188329523Y-70774819D01*
X188710476Y-70774819D02*
X189329523Y-70774819D01*
X189329523Y-70774819D02*
X188996190Y-71155771D01*
X188996190Y-71155771D02*
X189139047Y-71155771D01*
X189139047Y-71155771D02*
X189234285Y-71203390D01*
X189234285Y-71203390D02*
X189281904Y-71251009D01*
X189281904Y-71251009D02*
X189329523Y-71346247D01*
X189329523Y-71346247D02*
X189329523Y-71584342D01*
X189329523Y-71584342D02*
X189281904Y-71679580D01*
X189281904Y-71679580D02*
X189234285Y-71727200D01*
X189234285Y-71727200D02*
X189139047Y-71774819D01*
X189139047Y-71774819D02*
X188853333Y-71774819D01*
X188853333Y-71774819D02*
X188758095Y-71727200D01*
X188758095Y-71727200D02*
X188710476Y-71679580D01*
D12*
%TO.C,C3*%
X190727000Y-74160748D02*
X190727000Y-74683252D01*
X189257000Y-74160748D02*
X189257000Y-74683252D01*
%TO.C,J1*%
X175935000Y-69774087D02*
X175935000Y-71374087D01*
X175935000Y-71374087D02*
X177735000Y-71374087D01*
X177205000Y-66904087D02*
X180635000Y-66904087D01*
X177735000Y-71374087D02*
X177735000Y-72314087D01*
X181905000Y-69774087D02*
X181905000Y-71374087D01*
X181905000Y-71374087D02*
X180105000Y-71374087D01*
%TO.C,C5*%
X182021252Y-84089087D02*
X181498748Y-84089087D01*
X182021252Y-82619087D02*
X181498748Y-82619087D01*
%TO.C,U2*%
X176360000Y-77639087D02*
X176360000Y-81089087D01*
X176360000Y-77639087D02*
X176360000Y-75689087D01*
X181480000Y-77639087D02*
X181480000Y-79589087D01*
X181480000Y-77639087D02*
X181480000Y-75689087D01*
%TO.C,C4*%
X178658748Y-64235000D02*
X179181252Y-64235000D01*
X178658748Y-62765000D02*
X179181252Y-62765000D01*
%TO.C,J4*%
X214570000Y-52010000D02*
X214570000Y-80070000D01*
X214570000Y-52010000D02*
X217170000Y-52010000D01*
X214570000Y-80070000D02*
X219770000Y-80070000D01*
X217170000Y-52010000D02*
X217170000Y-54610000D01*
X217170000Y-54610000D02*
X219770000Y-54610000D01*
X218440000Y-52010000D02*
X219770000Y-52010000D01*
X219770000Y-52010000D02*
X219770000Y-53340000D01*
X219770000Y-54610000D02*
X219770000Y-80070000D01*
%TO.C,C2*%
X188187000Y-74160748D02*
X188187000Y-74683252D01*
X186717000Y-74160748D02*
X186717000Y-74683252D01*
%TO.C,C1*%
X178376252Y-84089087D02*
X177853748Y-84089087D01*
X178376252Y-82619087D02*
X177853748Y-82619087D01*
%TO.C,J2*%
X193995000Y-80890000D02*
X193995000Y-79290000D01*
X193995000Y-79290000D02*
X192195000Y-79290000D01*
X192725000Y-83760000D02*
X185545000Y-83760000D01*
X192195000Y-79290000D02*
X192195000Y-78350000D01*
X184275000Y-80890000D02*
X184275000Y-79290000D01*
X184275000Y-79290000D02*
X186075000Y-79290000D01*
%TO.C,U3*%
X188520000Y-61605000D02*
X186570000Y-61605000D01*
X188520000Y-61605000D02*
X190470000Y-61605000D01*
X188520000Y-70475000D02*
X186570000Y-70475000D01*
X188520000Y-70475000D02*
X191970000Y-70475000D01*
%TD*%
M02*
